<?xml version="1.0" encoding="UTF-8"?>
<svg id="_圖層_2" data-name="圖層 2" xmlns="http://www.w3.org/2000/svg" xmlns:xlink="http://www.w3.org/1999/xlink" viewBox="0 0 1073.51 867.8">
  <defs>
    <style>
      .cls-1 {
        fill: url(#_未命名漸層_12);
      }

      .cls-2 {
        fill: url(#_未命名漸層_7);
      }
    </style>
    <linearGradient id="_未命名漸層_7" data-name="未命名漸層 7" x1="318.96" y1="612.52" x2="775.34" y2="349.03" gradientUnits="userSpaceOnUse">
      <stop offset="0" stop-color="#6597d6"/>
      <stop offset="1" stop-color="#6cd9ae"/>
    </linearGradient>
    <linearGradient id="_未命名漸層_12" data-name="未命名漸層 12" x1="958.65" y1="208.44" x2="95.96" y2="706.52" gradientUnits="userSpaceOnUse">
      <stop offset="0" stop-color="#6597d6"/>
      <stop offset="1" stop-color="#6cd9ae"/>
    </linearGradient>
  </defs>
  <g id="_圖層_1-2" data-name="圖層 1">
    <g>
      <path class="cls-2" d="M723.46,319.68c34.3,39.27,35.88,88.69,35.63,138.77-.16,31.63-4.26,68.89-2.08,99.89.86,12.17,4.03,15.19,15.16,8.08,15.65-10,36.68-31.54,46.66-47.26,5.39-8.49,8.85-18.43,14.2-26.76,16.48-2.54,33.28-4.07,49.94-5.53-.73,17.53-9.27,38.27-17.79,53.64-21.23,38.3-90.19,107.19-136,70.64-22.9-18.27-21.32-64.05-21.11-90.86.34-44.38,8.56-113.89-12.78-152.97-31.25-57.25-104.13-35.1-117.78,23.45-17.72,76,25.38,179.71-58.33,227.38-71.57,40.75-171.37-.92-209.93-68.68-32.3-56.77-30.39-130.32,4.75-185.39,46.56-72.97,146.45-102.61,223.32-59.38l-23.68,43.27c-19.64-8.89-41.08-14.42-62.88-12.98-125.68,8.32-162.04,188.3-38.09,239.95,50.27,20.95,107.16,8.06,111.56-53.62,3.38-47.35-5.78-98.7,5.5-145.34,20.94-86.56,131.43-127.64,193.74-56.3Z"/>
      <path class="cls-1" d="M1058.53,431.26c-8.18-32.64-19.85-66.73-40.77-93.43,13.26-16.97-5.78-45.96-28.88-35.67l-44.17-30.58c-.5-19.68-21.96-29.16-37.37-16.99l-20.38-5.1c1.01-12.94-9.01-27.1-22.08-28.88-8.9-30.63-19.32-61.87-37.37-88.33,13.6-17.71-4.05-43.82-27.18-35.67-31.71-33.42-73.62-58.36-117.21-73.04-1.84-22.9-34.26-33.31-47.56-11.89l-38.22-3.54c-44.33,1.94-85.53,12.35-124.3,33.82-4.09,2.26-9.63,5.08-12.45,8.79-16.97-7.16-33.41,6.22-32.27,23.78-15.45,9.99-24.48,26.83-39.07,37.37-5.69-.44-11.16.5-15.29,5.1-33.72-9.14-70.82-5.78-101.92,10.19-15.92-9.98-36.18,1.88-35.67,20.38-29.79,23.15-51.72,58.45-54.36,96.82-6.27,2.33-11.35,8.52-11.89,15.29-47.11,11.57-92.13,45.23-117.21,86.63-25.86-3.34-40.75,26.97-23.78,44.17-11.89,34.3-21.1,70.39-20.38,107.02-13.94,10.35-10.48,34.33,5.1,40.77,5.35,25.88,15.91,50.55,29.87,72.9,7.8,12.49,18.37,22.96,24.49,35.82-2.87,19.25,15.35,34.68,33.97,28.88,23.53,18.59,52.06,31.42,81.54,37.37,4.15,29.42,56,19.81,44.17-13.59l16.99-16.99c14.07,30.5,32.05,59.48,56.06,83.23-8.33,23.39,13.82,45.44,35.67,33.97,14.64,16.18,33.76,28.25,52.66,39.07,3.17,24.05,45.85,19.48,36.6-10.29-3.71-11.93-22.98-14.45-31.51-6.7l-45.86-33.97c.97-2.12,1.6-6.08,1.7-8.49l95.13-27.18c8.31,8.52,9.33,6.93,20.38,8.49,2.2.31,5.35-1.18,6.96,1.05l35.5,75.39c-5.69,7.35-4.4,19.43,2.52,25.51,14.38,12.64,34.8-.27,31.45-18.71l67.84-68.9c2.6-1.87,5.72-2.86,8.6-4.14,3.37-1.5,6.9.55,11.89-5.1l117.21,15.29c.16,1.59,1.05,5.47,1.7,6.79-13.26,12.35-30.44,24.77-47.56,30.58-22.07-14.28-41.31,15.35-23.71,29.66,10.94,8.89,28.61,2.91,30.51-10.97l57.75-35.67c21.51,6.36,39.53-17.3,30.58-37.37,11.51-6.87,22.19-35.29,30.7-41.49,6.79-4.95,30.99-2.09,40.64-4.37,13.05,16.7,40.07,7.02,40.77-13.59,41.38-17.11,81.25-44.88,105.32-83.23,20.47,2.07,34.17-18.83,25.48-37.37l17.89-59.4c4.13-17.39,3.68-35.08,5.89-52.72,15.45-10.39,12.06-34.58-5.1-40.77ZM1004.17,346.33c15.18,27.16,30.83,55.37,35.67,86.63-9.81,5.4-13.58,14.52-11.89,25.48-8.67,18.5-28.82,31.42-39.07,49.26-2.22-.52-12.81-.44-15.29,0-8.85-11.44-21.7-21.98-30.64-33.06-2.04-2.53-3.99-3.83-3.33-7.71,2.77-4.46,3.11-6.79,3.4-11.89,3.1-2.2.74-7.05,2.55-10.19,1.98-3.43,17.5-12.36,19.53-18.68,23.65,7.84,40.69-22.3,23.78-39.07l10.19-40.77c1.55.03,3.78.27,5.1,0ZM965.1,555.26c4.44,2.95,15.1,4.23,20.38,3.4,6.67,2,11.5,12.54,13.59,18.69-5.37,5.65-8.55,10.31-8.49,18.69l-95.12,27.16,69.64-67.93ZM807.13,324.24c.18-.22,1.27-2.55,1.7-3.4l22.08,5.1c1.49,17.37,23.81,26.47,37.37,16.99l42.09,29.23c-.01,18.42,2.1,37.61-1.32,55.7-.59.2-2.68,1.29-3.4,1.7l-98.52-105.32ZM480.98,225.72l73.97-105.29c1.57-2.22,3.74-1.48,5.87-1.73,2.72-.31,5.8.36,8.49,0l40.77,73.04c-1.42,2.18-4.82,9.66-5.1,11.89l-124,22.08ZM584.6,111.91c.63-.57,1-2.49,1.7-3.4l32.27,5.1c.43,2.93,6.36,12.69,9.13,14.59,10.74,7.36,19.74,7.32,29.94-1l79.84,35.67c-25.45,8.1-50.97,19.26-76.8,25.99-3.29.86-6.39,1.67-9.83,1.19-6.73-8.18-13.12-9.59-23.78-8.49l-42.47-69.65ZM742.58,181.56c2.81,5.69,7.5,9.79,13.59,11.89l11.89,91.71-108.69-70.5-1.73-5.92,84.93-27.18ZM773.15,193.45c1.09-.33,2.31-1.16,3.4-1.7l59.45,50.96c-1.22,11.75,3.75,24.33,15.29,28.88l-1.7,28.88c-4.56.7-10.7,4.82-13.59,8.49l-23.78-5.1c-1.62-12.14-15.01-22.42-27.18-22.08l-11.89-88.33ZM927.75,385.4l22.07,13.59c-.6,4.08.02,11.51,1.7,15.29-5.21,5.86-11.1,14.33-18.69,16.99-1.78-1.28-2.62-2.53-5.1-3.4l.02-42.47ZM939.62,288.57l37.37,27.18c-2.95,8.36-.93,17.28,5.1,23.78l-10.19,40.77c-1.21.03-8.71,2.58-10.19,3.4-11.89-3.12-22.12-13.24-32.3-19.89.74-23.36-1.66-47.02,1.72-70.14.77-.28,8.15-4.74,8.49-5.1ZM878.47,266.49l20.38,5.1c-.04,8.84,4.81,18.78,13.59,22.08l-1.71,56.05-33.97-22.07c1.23-9.46-1.89-18.79-10.19-23.78l1.7-32.27c3.9-1.11,7.15-2.32,10.19-5.1ZM813.92,140.79c12.96,26.98,28.11,55.01,32.27,84.93-1.09,1.26-9.51-5.61-11-6.84-11.25-9.32-24.02-21.3-34.89-31.36-3.7-3.42-9.07-7.63-10.17-12.76,1.27-8.12.15-12.1-3.4-18.69-.74-8.59,10.48-9.58,13.59-16.99,4.45,1.56,8.89,2.53,13.59,1.7ZM679.72,40.57c34.32,13.84,67.98,31.49,95.93,56.1,3.99,3.51,9.79,8.16,11.09,13.54-1.49,4.41-1.49,10.87,0,15.29-2.15,8.84-12.3,11.8-16.99,18.69-5.3-1.05-7.54-2.07-13.59,0l-78.14-103.62h1.7ZM665.36,55.78l63.61,80.79-2.5,2.5c-15.43-8.28-32.25-13.99-47.9-21.75-5.65-2.81-12.1-4.17-14.14-10.5-.61-6.7-4.15-13.78-10.19-16.99l3.4-37.37c2.44.77,5.75-.3,7.72,3.32ZM640.66,47.36l-3.4,40.77c-6.09,1.51-10,3.17-13.59,8.49l-30.58-5.1c-.02-.52-1.31-3.87-1.7-5.1-.87-4.54,1.35-4.91,3.82-7.23,12.65-11.89,31.38-20.79,43.75-33.54.57.53,1.22,1.39,1.7,1.7ZM630.46,28.68l-50.96,40.77c-7.8-4.21-25.02-1.57-31.51,5.08-2.21,2.26-1.68,3.79-2.47,5.11l-71.34-10.19c-.08-1.44-1.09-5.52-1.7-6.79,47.52-28.51,102.58-41.22,157.98-33.97ZM285.57,139.94c25.7-11.23,56.28-11.9,83.3-5.95.11.45,4.43,6.96,5.07,7.67,14.68,16.13,40.22-.43,32.3-19.56,10.87-9,18.08-26.83,32.27-30.58,10.62,6.1,23.13,4.97,30.58-5.1l71.34,11.89c.07.45,3.05,7.89,3.4,8.49l-76.44,108.71c-9.09-3.22-19.84-1.22-27.18,5.1-26.3-11.67-52.9-23.25-78.75-35.91-7.43-3.64-16.4-6.86-21.47-13.35-1.32-21.39-26.74-31.18-42.47-16.99l-15.29-5.1c.04-1.08.13-2.34,0-3.4-.59-4.75-.49-4.28,3.33-5.95ZM336.59,256.3c-2.24-3.35-6.58-7.04-10.19-8.49l-3.4-49.26c4.65-1.42,6.85-3.63,10.19-6.79l96.82,44.17-93.43,20.38ZM292.54,292.93c-11.87,24.54-34.73,51.51-48.73,75.27-1.28.54-2.98-.09-4.04.21l-10.19-40.77c10.53-6.18,8.39-10.12,11.89-18.69.84-2.07,2.6-5.32,4.53-6.51,10.43-6.44,35.93-9.63,48.13-15.57.56,2.6-.59,3.99-1.59,6.06ZM219.39,404.08l-44.17,49.26c-8.72-2.97-18.47-.47-25.48,5.1-8.5-2.43-18.1-7.97-25.54-12.68-2.58-1.63-5.25-1.91-5.04-6,.92-6.9.1-12.74-3.4-18.69l88.33-93.43c2.54,1.53,5.49,3.05,8.49,3.4l10.19,44.17c-7.53,7.52-8.48,19.95-3.4,28.88ZM167.67,633.45c-8.23-1.07-26.15-35.3-34.92-40.82,4.2-7.82,1.32-22.55-5.1-28.88l30.76-56.73c1.47-3.4,4.27-2.19,6.61-2.72,3.17-.72,6.54-.35,10.19-1.7l100.22,112.11c-.44,1.02-1.67,3.21-1.7,3.4l-106.07,15.34ZM117.47,640.2c-1.84-4.89-7.27-9.61-11.89-11.89l6.79-23.78c1.41,0,5.28-1.12,6.79-1.7l25.48,33.96-27.18,3.41ZM68.2,388.79c4.64-5.49,4.96-8.32,5.1-15.29l97.43-41.06,4.46,1.14-69.51,73.14-8.59,2.45c-3.46-.37-12.26.44-15.29,1.7l-13.59-22.08ZM289.03,269.89c-14.69,3.16-29.71,11.22-44.11,14.5-1.5.34-4.48,2.04-5.15-.05l62.84-87.49c.68.41,1.24,1.53,1.7,1.7l3.4,47.56c-9.81,1.75-18.23,14.24-18.69,23.78ZM243.17,164.57c7.77,6.93,24.51,6.93,32.27,0l13.59,6.79c-.18,3.16.57,10.93,1.7,13.59l-69.65,95.13c-2.74-.33-9.38-.47-11.89,0,.2-2.83-2.75-4.93-3.4-6.79-1.53-4.43,3.28-9.16,1.33-17.49-.52-2.21-6.71-10.58-8.12-11.39,4.91-30.73,20.48-59.73,44.17-79.84ZM153.68,283.17c2.91-1.22,20.39-8.12,21.54-8.19,1.9-.11,8.12,5.33,15.29,5.1.44,3.43,1.7,7.03,5.1,8.49-2.62,3.4-5.22,12.53-5.1,16.99l-120.61,50.96c-.29-.48-1.17-1.1-1.7-1.7,19.24-30.67,52.09-57.65,85.48-71.65ZM31.66,446.53c3.22-16.89,8.43-33.2,14.46-49.24,1.57.13,3.53.14,5.1,0l18.69,25.48c-2.52,6.02-2.28,15.89,0,22.08-10.72,14.2-22.16,32.01-34,44.99-2.01,2.2-3.39,4.22-6.77,4.27-1.31-.43-3.21-1.68-3.4-1.7,1.94-15.41,3-30.56,5.93-45.88ZM81.79,628.31c-4.02-.25-6.1-3.33-8.44-6.01-19.59-22.36-35.57-56.54-40.82-85.72,11.6-5.55,17.09-18.26,11.89-30.58l37.37-47.56c6.76,3,21.05,2.34,27.18-1.7,9.48,6.31,19.86,13.23,30.58,16.99-.99,5.52,2.15,13.97,5.1,18.69l-33.97,66.25c-20.18.95-30.06,24.53-15.29,39.07l-6.79,27.18c-1.16.17-5.42,2.54-6.79,3.4ZM185.41,696.25c-20.46-6.65-45.93-14.7-63.42-27.46-2.53-1.85-4.52-2.88-4.53-6.51.3-.81-.23-2.36,0-3.4,9.1-.62,33.56-7.82,40.79-4.25,4.15,2.05,25.41,33.56,28.86,39.93-.51.63-1.49,1.28-1.7,1.7ZM261.85,674.17c16.76-21.24-14.99-42.83-28.88-22.93-4.89,7-2.5,9.18-3.4,16.14-1.13,8.77-8.78,13.42-13.59,20.38-2.63-.99-3.79-1.5-6.79-1.7-2.1-2.15-5.09-1.44-7.6-3.45-1.67-1.33-19.32-25.35-20.95-28.32-1.13-2.05-2.99-2.89-.38-4.81l95.17-12.69c2.46,6.59,13.57,14.48,20.38,15.29l16.97,100.22c-21.39-21.76-41-49.15-50.94-78.14ZM345.09,760.8c-2.88-3.88-10.6-9.38-15.29-10.19l-16.99-101.92c.21-.12,2.64-2.66,3.4-3.4l122.3,79.84c-.47,1.84-.02,6.13,0,8.49l-93.43,27.18ZM452.1,711.54l-127.4-81.54c2.63-20.14-16.32-35.84-35.67-28.88l-100.22-108.71c4.43-7.07,3.91-19.81,0-27.18l44.17-50.96c21.94,3.96,37.89-18.34,25.48-35.67l50.96-81.54c14.97,2.6,30.36-8.73,32.27-23.78l95.13-18.69c8.9,12.8,27.69,15.17,39.15,4.32,2.17-2.05,7.99-12.14,8.41-14.52l125.7-23.78c8.51,12.81,24.93,16.51,37.37,6.79l109.64,72.96,4.17,10.27c1.03,16.61,16.36,26.7,32.27,22.08,30.87,37.54,64.67,72.98,96.92,109.47,2.7,2.76,1.06,6.65,1.6,9.43,3.68,18.77,4.68,19.08,22.08,25.48,3.97,1.46,8.42,1.55,11.18,3.26,3.41,2.12,23.78,26.92,28.77,32.38,1.92,2.1,4.26,3.49,4.21,6.82-3.37,5.87-4.45,11.89-3.4,18.69l-78.14,78.14c-18.72-8.33-38.4,5.23-37.37,25.48l-101.92,42.47c-7.92-9.25-27.6-9.06-35.67,0l-76.44-27.18c-1.49-18.32-27.89-24.22-36.09-7.98-1.18,2.35-.72,4.99-1.28,6.29-1.01,2.34-1.58,4.74-2.79,6.95l-102.53,54.21c-7.93-7.93-20.5-9.37-30.58-5.1ZM598.19,759.1c.04,3.33-2.29,4.72-4.21,6.82-16.28,17.71-41.63,46.83-59.42,61.19-2.53,2.04-3.83,3.99-7.71,3.33-.97-.18-2.3,0-3.4,0l-37.37-83.23c2.94-5.05,3.56-7.68,3.4-13.59l108.71-57.75c7.06,2.66,10.73,2.1,16.99-1.7l81.54,27.18c.39,15.87,13.81,24.8,28.88,20.38,7.86,13.61,21.51,24.39,27.18,39.07-1,1.21-3.3,3.18-3.4,3.4l-113.81-15.29c-3.81-20.39-43.6-20.02-37.37,10.19ZM783.34,752.31c-3.33-1.21-11.73-2.19-15.29-1.7l-28.88-39.07c1.37-2.4,3.25-7.51,3.4-10.19l17.86-8.45.83,1.66c-7.16,13.41,2.8,28.61,17.53,28.34,5.23-.1,8.8-4.03,11.35-4.56,5.09-1.06,11.88,1.97,16.98,2.54l-23.77,31.44ZM820,701.48c-6.21,4.53-16.05-.88-23.07-.13-1.07-7.97-7.94-13.49-15.29-15.29l61.15-25.48c-2.58,6.41-18.85,38.03-22.79,40.9ZM863.18,699.65c-4.42,2.11-9.28,1.13-13.59,1.7l-6.79-1.7c5.46-10.89,12.38-20.99,16.99-32.27,6.27.17,6.61,13.7,10.19,18.69-2.5,2.24-6.33,10.06-6.79,13.59ZM902.25,687.76c-4-4.19-9.51-6.52-15.29-6.79l-6.79-20.38c6.3-4.62,9.45-8.89,10.19-16.99l107.02-30.58c.43.49,1.23,1.32,1.7,1.7-25.19,31.55-58.22,59.72-96.82,73.04ZM1039.01,526.4c-3.37,15.24-8.64,29.75-14.46,44.15-1.02-.37-7.8-1.76-8.49-1.7l-13.59-20.38c4.66-7.43,4.31-21.11,0-28.88,6.89-10.54,16.15-21.25,24.61-30.6,3.16-3.49,6.65-7.1,9.97-10.44,1.94-1.96,1.2-4.42,6.19-3.12.48.49,1.49.82,1.7,1.7,2.1,9.03-3.62,38.84-5.93,49.28Z"/>
    </g>
  </g>
</svg>