<?xml version="1.0" encoding="UTF-8"?>
<svg id="_圖層_2" data-name="圖層 2" xmlns="http://www.w3.org/2000/svg" xmlns:xlink="http://www.w3.org/1999/xlink" viewBox="0 0 1069.11 865.53">
  <defs>
    <style>
      .cls-1 {
        fill: url(#_未命名漸層_12);
      }

      .cls-2 {
        fill: url(#_未命名漸層_12-2);
      }
    </style>
    <linearGradient id="_未命名漸層_12" data-name="未命名漸層 12" x1="318.6" y1="611.38" x2="774.98" y2="347.89" gradientUnits="userSpaceOnUse">
      <stop offset="0" stop-color="#6597d6"/>
      <stop offset="1" stop-color="#6cd9ae"/>
    </linearGradient>
    <linearGradient id="_未命名漸層_12-2" data-name="未命名漸層 12" x1="952.25" y1="206.68" x2="96.43" y2="700.79" xlink:href="#_未命名漸層_12"/>
  </defs>
  <g id="_圖層_1-2" data-name="圖層 1">
    <g>
      <path class="cls-1" d="M723.09,318.55c34.3,39.27,35.88,88.69,35.63,138.77-.16,31.63-4.26,68.89-2.08,99.89.86,12.17,4.03,15.19,15.16,8.08,15.65-10,36.68-31.54,46.66-47.26,5.39-8.49,8.85-18.43,14.2-26.76,16.48-2.54,33.28-4.07,49.94-5.53-.73,17.53-9.27,38.27-17.79,53.64-21.23,38.3-90.19,107.19-136,70.64-22.9-18.27-21.32-64.05-21.11-90.86.34-44.38,8.56-113.89-12.78-152.97-31.25-57.25-104.13-35.1-117.78,23.45-17.72,76,25.38,179.71-58.33,227.38-71.57,40.75-171.37-.92-209.93-68.68-32.3-56.77-30.39-130.32,4.75-185.39,46.56-72.97,146.45-102.61,223.32-59.38l-23.68,43.27c-19.64-8.89-41.08-14.42-62.88-12.98-125.68,8.32-162.04,188.3-38.09,239.95,50.27,20.95,107.16,8.06,111.56-53.62,3.38-47.35-5.78-98.7,5.5-145.34,20.94-86.56,131.43-127.64,193.74-56.3Z"/>
      <path class="cls-2" d="M787.06,83.79c2.82,2.66,5.87,5.09,8.61,7.85,1.33,1.34,2.84,4.49,3.97,5.07,1.62.83,6.82-1.52,9.4-1.45,10.48.29,16.65,9.39,15.58,19.39-.5,4.69-4.08,8-2.56,12.52,14.47,21.37,26.12,45.81,33.25,70.67,1.76,6.15,5.09,27.15,7.21,30.51.95,1.52,5.21,2.13,6.98,3.26,4.17,2.65,7.56,8.37,8.26,13.22,8.23-.26,21.47,7.89,28.42,8.16,2.68.1,4.76-3.04,7.66-4.21,6.83-2.75,14.51-1.61,19.74,3.68,5.66,5.72,2.57,11.97,5.25,15.24,16.02,8.98,31.46,19,44.71,31.78,2.41,1.1,4.52-1.21,7.43-1.56,7.4-.89,12.89.62,17.49,6.55,8.7,11.22-.88,17.18,1.46,24.49,20.09,27.4,37.05,59.73,41.67,93.72,16.31,2.89,23.98,20.84,10.9,32.63-1.38,1.24-4.91,2.42-5.08,3.13-1.34,5.54.42,19.79.03,26.8-1.7,30.7-9.99,61.09-22.7,88.93,10.09,13.4,5,30.57-12.92,32.39-1.88.19-4.15-1.21-5.33-.5-1.52.92-7.67,11.1-9.58,13.46-18.37,22.76-40.38,43.2-65.5,58.38-12.48,7.54-26.38,12.97-38.62,20.33-.75,10.98-12.24,16.6-22.45,14.03-2.52-.64-5.96-4.47-7.78-5.22-3.42-1.41-21.09,2.78-26.45,3.45-6.31.8-12.97.86-19.31,1.17-8.96,17.06-21.43,32.02-33.67,46.83.8,7.95,4.01,16.29-1.03,23.87s-13.17,9.44-21.86,8.01c-2.67-.44-3.79-2.43-5.29-2.81-2.7-.68-8.3,6.72-10.78,8.82-14.92,12.66-31.98,23.61-49.41,32.52-2.34,6.57-4.64,15.4-12.72,17.24-17.53,4-26.8-18.77-11.63-27.61,10.4-6.06,14.77,2.38,19.34,1.43,15.34-7.44,36.01-21.03,48.97-33.03,2.31-2.14,9.93-8.27,7.55-11.57-36.9-9.55-82.74-11.55-120.9-18.74-6.6,12.19-17.24,15.56-29.9,9.9l-66.17,69.84c7.2,11.07-1.08,27.79-13.87,29.02-22,2.11-28.67-19.77-15.95-35.05l-34.39-75.55c-2.2-9.41-9.2-4.84-15.87-8.1-2.94-1.44-5.37-5.87-7.32-6.74-2.45-1.09-20.66,5.81-24.94,7.03-27.55,7.83-55.44,15.03-82.45,24.46.84,3.1-3.85,10.3-3.04,11.98.3.61,8.64,7.78,10.08,8.98,5.52,4.59,39.03,28.64,43.76,27.8,1.08-.19,2.46-2.04,4.41-2.55,26.76-7.12,26.78,33.03,1.99,28.49-12.15-2.23-9.44-13.18-13.76-17.21-4.82-4.5-19.62-11.13-26.25-15.71-6.91-4.77-13.74-10.38-20.14-15.82-1.9-1.61-6.14-6.87-7.56-7.51s-10.64,1.02-15,.1c-10.75-2.28-16.43-16.76-12.47-26.57-16.14-16.25-29.76-34.74-41.43-54.45-2.13-1.12-11.09,1.44-14.45,1.59-6.71.31-20.44-1.36-25.81-.06-.67.16-5.42,7.75-9.97,9.24-8.57,2.81-15.92-.44-21.18-7.26-1.37-1.77-1.17-4.57-3.11-5.88s-10.35-2.34-13.63-3.36c-20.41-6.33-39.56-14.91-57.66-26.27-3.63-2.28-17.54-13.64-20.07-13.01-1.64.41-3.13,2.15-5.55,2.54-11.21,1.82-22.68-3.38-24.33-15.51-.6-4.4,1.46-11.17.74-13.67s-17.04-21-20.23-25.8c-15.27-22.99-25.66-49.07-32.66-75.73-15.88,1.02-22.73-20.22-11.93-30.6,1.68-1.62,6.29-3.47,6.86-5.12-3.42-40.21,2.91-80.57,19.74-117.15-5.67-8-8.37-16.37-2.01-24.97s14.08-3.95,18.42-6.56c1.45-.88,10.39-15.6,12.56-18.41,23.11-29.94,53.47-53.71,88.38-68.48,3.03-1.28,19.82-6.62,20.49-7.49,1.04-1.35,1.2-6.27,3.47-9.51,2.72-3.89,8.88-5.54,9.51-6.47.8-1.17,4.74-23.09,6.21-27.75,6.4-20.29,19.61-43.15,34.71-58.2,1.58-1.58,9.88-7.45,10.3-8.17,1.25-2.13-.91-9.77,2.37-15.13,2.26-3.69,10.03-7.64,14.34-7.63,3.81,0,9.87,3.72,10.98,3.64,32.21-19.01,74.39-24.56,109.94-10.78,2.92-4.75,9.36-8.66,15.01-8.9,2.02-.08,4.22,1.25,5.75.89,1.3-.3,11.87-14.34,14.17-16.84,5.07-5.51,11.06-11.31,16.49-16.52.82-.78,2.72-1.35,2.88-1.61.39-.65-1.05-6.01-.9-8.3.69-10.49,10.36-17.11,20.46-15.44,2.53.42,4.44,2.48,6.29,2.77,2.74.42,14.81-8.86,18.58-11,44.69-25.33,93.45-37.28,145.1-34.83,5,.24,13.47,2.88,17.91,2.02,2.63-.51,6.59-5.89,9.63-7.37,7.47-3.65,17.82-1.92,22.71,5.06,1.78,2.54,3.02,8.53,5.2,9.79,44.66,10.8,83.35,36.07,116.28,67.08ZM633.78,20.25c-60.89-10.11-123.41,7.55-174.24,40.87l-.63,3.06,84.23,14.03c4.75-7.22,11.2-11.66,20.17-11.02,4.32.31,8.8,3.72,12.23,2.26l56.28-44.68,1.97-4.52ZM777.04,88.78c-29.46-28.02-69.9-53.79-110.29-61.54l84.94,112.37c6.72,1.15,12.79-.46,19.27,2.38,2.55-3.65,19.85-17.26,20.6-19.53.5-1.51-.98-5.33-.95-7.77.03-2.68,1.25-9.53.91-10.81-.58-2.19-12.09-12.77-14.47-15.09ZM640.46,31.37l-58.72,46.25c-1.63,1.61-.64,6.05.61,7.53,2.6,3.09,39.52,8.16,46.01,10.93,5.52-4.52,10.19-4.93,11.3-12.52,1.69-11.58,3.66-28.26,4.15-39.8.12-2.71.97-13.05-3.35-12.39ZM742.69,145.1l-13.01-18.45c-24.54-30.18-46.62-62.6-71.63-92.22l-4.28-.22-5.1,55.46c.18,1.65,6.35,4.98,7.55,8.52.87,2.56-.03,5.61,1.44,7.55l85.03,39.36ZM541.63,88.39l-82.16-14.24c-3.43,1.28-3.83,4.44-7.4,6.66-1.81,1.13-5.91,2.91-7.91,3.16-4.18.51-10.86-3.02-12.19-2.36-1.53.76-10.04,9.93-12.05,12.02-3.2,3.34-16.31,17.47-17.47,20.57-1.1,2.92,2.01,6.13,2.43,9.52,1.84,14.95-12.86,24.3-26.24,18.23-9.2-4.17-7.54-13.33-11.34-15.64-31.02-11.59-69.5-7.08-98,9.05-1.02,1-.7,5.84-.23,7.01.49,1.25,21.8,8.45,24.68,10.56,12.57-11.56,30.52-10.85,35.84,7.09,1,3.37-.91,7.15,3.29,8.7l107.06,51.89c3.81.93,6.51-4.01,10.74-5.34,4.59-1.44,8.79-.81,13.29.27l80.14-114.71c1.46-1.39-2.01-11.98-2.47-12.45ZM626.55,106.39c-2.25-2.55-38.43-7.34-44.4-10.17-2.37-.57-5.17.87-5.38,3.49-.23,2.94,24.56,41.65,28.2,47.72,2.93,4.89,16.99,31.78,19.81,33.14s9.3.19,13.98,2,7.88,7.86,12.23,7.31c24.85-9.48,50.66-16.34,75.67-25.35,3.85-1.39,19.28-4.87,11.96-9.88-24.19-11.11-48.28-22.39-72.54-33.37-2.16-.98-9.88-5.76-11.01-5.96-1.49-.27-7.14,4.33-10.92,4.73-5.87.62-11.5-2.13-14.81-6.99-1.36-2.01-2.25-6.07-2.8-6.69ZM567.62,106.37l-14.6-1.06-78.19,113.14c-2.05,3.38-1.27,7.57,3.29,6.37l132.52-25.92c-1.55-4.74,5.47-9.78,4.75-12.83l-47.78-79.69ZM851.6,231.01c-3.71-24.48-11.49-49.63-22.6-71.79-2.3-4.59-14.67-26.7-18.1-27.86-1.37-.46-11.25-2.2-12.22-1.77-2.47,4.42-18.99,16.18-19.86,19.24-.27.93.96,18.36,1.36,19.23,15.82,15.24,33.06,28.88,49.46,43.46,5.99,5.33,12.86,13.32,18.96,18,1,.77,1.27,1.94,3,1.49ZM58.23,356.88l132.59-55.74c4.52-1.55,2.67-5.28,3.55-8.44,3.39-12.31,14.63-15.43,26.27-14.62l72.88-99.05c.8-2.22-1.78-14.09-3-15.9-1.79-2.66-20.41-8.03-24.12-10.84-6.84,3.53-9.96,8.07-18.58,6.57-5.14-.89-5.67-4.7-11.23-.75-10.88,7.73-25.01,28.09-30.65,40.27-2.89,6.24-14.53,39.01-11.66,43.48.24.38,2.75.79,3.79,1.68,15,12.82,1.68,37.8-18.32,29.32-2.61-1.11-5.91-4.82-6.31-4.89-4.61-.91-26.08,8.67-31.49,11.28-29.4,14.21-56.54,37.89-75.54,64.33-1.19,1.66-9.01,12.45-8.17,13.3ZM746.32,172.46c-1.07-.82-2.08-1.68-3.37-2.17l-92.06,29.88-.79,6.45,114.83,76.21c4.93-1.11,3.83-5.29,3.72-9.34-5.2-29.25-4.92-60.6-10.25-89.64-1.45-7.92-3.98-5.03-9.46-8.55-1.51-.97-1.84-2.22-2.63-2.83ZM800.23,199.47c-8.83-7.65-17.76-15.24-26.58-22.92-6.07-2.81-5.23,8.33-4.96,12,1.44,19.76,5.66,41.06,7.97,60.96,1.09,9.35,1.11,18.94,2.67,28.25.81,1.85,4.8,1.84,7.01,3.03,7.44,4,9.33,8.74,11.28,16.69,10.62,2.9,21.33,5.36,32.03,7.94,3.57.86,6.12,3.57,10.24,2.32.62-.19,10.2-6.94,10.5-7.51.61-1.16,1.04-4.29,1.2-5.79,1.1-9.93.96-20.72,2.02-30.75-9.53-4.97-13.38-14.44-9.51-24.71-14.52-13.26-29.04-26.65-43.88-39.51ZM437.93,232l-110.83-54.46c-1.88-.57-9.95,5.64-10.09,6.23-1.21,4.95.95,14.27-.02,19.81,2.12,6.32.38,36.83,4.05,39.91,1.34,1.13,5.12,1.54,7.5,3.49,1.87,1.53,3.86,5.87,5.42,6.46,1.11.42,10.86-1.5,13.08-1.91,30.43-5.57,60.62-13.23,90.89-19.53ZM306.03,183.06c-1.93-.34-2.7.32-4.06,1.44-2.65,2.18-10.58,13.93-13.33,17.64-14.52,19.5-28.54,39.48-42.72,59.22-4.65,6.47-12.87,14.44-16.04,21.88-.53,1.25-1.05,2.27-.78,3.71,7.93-2.53,65.15-20.55,67.02-23.63,1.54-2.54,1.31-7.57,4.08-11.65s6.66-4.47,8.82-8.15c-1.39-20.14-.92-40.35-3-60.45ZM809.06,341.48c-7.54-8.28-15.05-16.63-22.42-25.09-10.49,3.26-24.21.26-27.28-11.64-1.2-4.66.52-10.84-2.14-13.84-37.46-23.58-74.61-51.9-112.18-74.76-2.05-.3-5.83,3.08-9,3.63-5.09.88-11.79.57-16.2-2.3-2.72-1.77-5.62-6.98-8.59-7.46-43.64,5.79-87.56,17.62-131.18,24.66-5.39,1.72-3.5,4.69-5.42,8.57-7.04,14.23-27.82,14.77-34.92-.04-34.54,5.58-69.12,14.06-103.49,21.01-2.79,16.49-13.96,19.08-29.05,17.91-18.08,30.81-37.34,61.03-55.72,91.72.42,5.08,4.38,9.64,4.64,15.55.65,14.77-16.06,25.3-28.93,17.47-14.75,19.03-32.4,36.07-47.58,54.96-.71,1.74,2.26,6.44,2.34,9.43.1,3.86-2.05,8.07-2.67,11.79l106.22,116.66c3.76,2.51,7.87-.95,11.95-.96,10.47-.03,18.11,8.71,19.41,18.66.51,3.89-2.56,4.68,1.69,8.22l136.04,89.79c6.66-4.85,14.41-6.78,22.34-3.39,2.94,1.26,4.44,4.81,7.01,4.11l101.95-58.09c1.12-1.3-.25-3.49.15-5.67,4.61-24.83,37.2-22.01,38.36,2.32l76.1,29.69c2.74,1.14,2.2-1.5,3.72-2.83,9.12-7.98,21.91-7.59,30,1.71l108.76-46.59c2.48-13.92,8.72-22.8,24.18-21.09,2.93.32,4.97,2.67,7.43,1.56,30.09-28.58,60.31-56.93,89.81-86.14-2.78-6.57,2.29-14.32-1.83-19.52-.99-1.24-2.88-1.84-4.06-3.2-10.5-12.17-21.56-23.8-31.93-36.08-2.13-1.15-4.69,1.26-7.46,1.59-7.54.9-14.25-2.4-18.52-8.51-6.96-9.96.83-18.41-1.49-23.46-30.71-32.76-59.77-67.11-90.01-100.34ZM903.32,263.22c-1.24-1.12-23.86-7.44-26.25-7.33-3.87.19-3.57,3.55-6.54,5.52-1.34.89-3.83.93-4.7,1.79-2.85,2.82-3.78,33.22-5.29,39.08,3.46,1.65,6.86,4.15,8.29,7.93,1.54,4.08-.3,9.61,1.71,12.28,3.03,4.03,13.24,8.96,17.79,12.19,5.83,4.14,11.92,9.42,17.79,13.18,1.14.73,7.64,4.9,8.46,4.02l.98-69.4c-.69-3.84-5.29-3.68-7.46-6.53s-3.95-12-4.76-12.73ZM300.03,273.97c-7.89,3.74-65.55,20.66-67.46,23.95-.89,1.53-.26,4.11-.95,6.04-1.74,4.82-5.09,9.01-9.58,11.54,3.39,6.48,11.97,52.03,15.02,53.88,1.58.96,4.24.88,5.53-.51l57.44-94.9ZM972.27,382.62c.61-.55,4.14-13.5,4.74-15.74,1.36-5.06,8.11-32.51,7.29-35.25-.91-3.04-6.22-7.11-7.35-12.65-.87-4.27.84-8.45.39-10.35-1.04-4.48-32.41-25.91-38.14-28.83-6.1-3.1-9.24-3.37-13.66,2.66l-.79,76.72,3.86,4.14,32.95,23.08c.77.31,10.07-3.2,10.71-3.77ZM860.18,383.27c15.47,17.32,30.9,34.72,46.38,52.04,3.67,1.52,5.57-.41,6.04-3.97.94-7.02.78-20.19.99-27.98.14-4.9.51-36.83-.52-38.52l-47.54-33.47c-2.37-.82-4.67,1.99-7.49,2.45-5.91.98-13.58-.49-17.45-5.4-2.53-3.21-2.31-8.97-4.62-10.36l-41.31-10.13c-1.43,5.54,22.83,25.98,27.49,31.95,12.79,14.35,25.25,29.06,38.04,43.39ZM191.12,312.94c-44.21,16.42-86.74,37.1-130.79,54.04,1.04,5.38-2.62,9.05-2.61,13.83l24.66,33.85c5.18-.36,8.79-1.79,13.83.7,32.15-33.7,63.81-67.81,94.91-102.42ZM186.74,438.42c11.09-12.38,21.22-25.75,32.92-37.61-2.02-8.07-4-14.58.59-22.3,1.43-2.4,5.6-4.65,5.85-7.15l-13.2-51.72c-.73-1.79-8.45-5.34-10.32-3.81l-98.24,106.69,2.01,12.13,40.73,23.66c7.06-3.87,10.57-6.51,19.51-5.48,1.99.23,3.73,2.39,5.52,1.51.97-.47,12.66-13.72,14.63-15.92ZM1000.34,333.01c-1.15.33-5.4.74-5.71,1.03-1.78,1.74-7.92,42.67-11.09,48.46-.35,4.66,4.36,6.07,6.17,10.62,2.92,7.33,1.51,15.6-4.74,20.67-6.91,5.59-12.6,2.34-20.43,1.5-3.88,5.27-28.9,24.84-29.77,29.11-.42,2.09,1.91,7.87,1.81,10.85-.13,3.75-3.58,7.5-1.53,11.5,12.92,12.73,24.43,29.03,38.07,40.74,1.08.21,4.73-.87,6.89-.85,2.94.02,5.74,1.78,8.02.18,15.58-18.72,32.63-36.27,47.42-55.55-1.48-5.92-2.92-10.61-.7-16.67,1.44-3.92,7.45-7.86,7.7-10.31.29-2.85-6.75-25.37-8.29-29.66-7.98-22.21-20.78-42.18-33.84-61.62ZM922.67,435.68c.36.41,4.78,1.25,5.87.68.79-.42,4.74-5.96,6.48-7.58,6.87-6.4,13.88-12.83,21.08-18.87,2.83-3.49.29-11.27-.5-15.64-6.88-2.7-24.9-19.65-30.55-20.42-2.04-.28-1.31.16-1.5,1.49-.74,5.29.29,12.42.04,18.05-.1,2.36-1.01,4.55-1.08,6.91-.13,4.43-1,34.05.16,35.39ZM22.26,500.73c2.44,2.51,10.4-10.51,12.01-12.46,13.23-16.06,27.04-31.66,39.73-48.16-.66-2.95-2.55-5.67-2.59-8.8-.04-3.42,2.37-7.01,2.57-9.17.13-1.43-13.6-21-15.76-23.81-2.01-2.62-9.09-12.17-11.55-12.51-1.91-.27-4.98.34-5.76,2.29-15.56,35.21-22.52,74.14-18.66,112.62ZM86.97,627.37c1.99-1.63,9-37.29,12.04-42.43-5.7-7.66-10.16-13.06-6.01-22.97,3.65-8.7,11.35-9.43,19.66-10.25l35.36-64.65c-4.09-5.89-6.87-11.94-5.3-19.3l-41.1-24.02c-2.88-.26-4.35,3.38-7.97,3.97-4.2.68-9.59-1.43-11.75-1.01-1.09.21-11.93,15.39-13.71,17.52-11.83,14.17-24.04,28.03-35.48,42.53,1.57,6.78,3.31,14.98-.63,21.26-1.1,1.74-4.36,4.04-4.6,5.28,6.72,33.54,27.01,70.74,49.98,96.01,1.44.53,8.53-1.15,9.52-1.95ZM1046.45,458.77c-.63-.62-3.36.13-4.47,1.02-2.2,1.78-8.32,10.92-11,13.98-11.99,13.66-24.14,27.19-36.36,40.65,3.89,8.03.43,13.68-.72,21.26,3.27,4.33,20.65,32.9,23.23,33.8,1.48.51,5.1.44,6.64-.03,2.26-.68,8.26-15.29,9.45-18.52,5.66-15.35,11.96-40.51,13.21-56.72.31-4.08,1.28-34.21.01-35.45ZM193.51,514.34c-6.95-7.51-13.68-15.37-20.38-23.13-1.91-1.19-13.32,2.79-17.02,1.98l-34.81,63.2c2.64,6.32,4.96,9.07,3.63,16.52-.41,2.3-3.15,6.03-2.31,7.7.9,1.78,5.44,5.9,6.98,8.08,10.44,14.73,20.68,29.86,32.14,43.67l116.13-16.94,1.73-7.78c-29.08-30.69-57.37-62.27-86.11-93.3ZM1003.26,589.4c.03-4.21,5.28-12.46,3.74-15.72-.48-1.01-2.23-1.89-2.95-3.08-6.02-9.92-12.47-19.39-18.97-28.99-2.22-1.62-6.75-.77-9.84-1.15-1.32-.16-4.45-1.89-4.65-1.74-.31.22-2.79,4.37-4.55,5.99-28.28,26.11-56.43,52.53-83.46,79.88,40.89-9.05,81.53-20.26,120.67-35.19ZM115.09,585.7c-.88-.64-6.23.95-6.74,2.59-.36,5.41-12.12,40.24-11.05,42.14.58,1.02,8.78,4.99,8.51,9.2l43.35-5.06-34.06-48.88ZM1006.48,599.63c-40.3,14.37-81.62,26.04-123.32,35.84-.44,7.64-4.2,10.84-8.41,16.41,4.58,5.93,6.17,22.19,9.71,27.07.49.68,5.98,1.13,8.12,2.09,3.89,1.75,4.88,6.06,9.23,5.34,38.92-15.81,84.81-49.27,104.67-86.74ZM278.92,625.67c-36.88,5.55-74.11,9.85-110.77,16.4,8.79,13.04,18.98,25.01,28.4,37.54,1.58,2.1,3.33,7.73,6.06,7.96,1.7.14,3.88-1.17,6-1.12s4.26,1.18,6.05,1.15c5.23-.1,11.47-13.6,16.49-16.48,2.69-3.93-1.24-7.33-.85-11.75,2.97-22.1,35.11-18.05,30.71,4.64-.51,3.15-3.57,5.46-2.79,8.82,9.63,19.45,19.33,39.15,32.41,56.59,2.44,3.25,21.16,26.04,22.9,26.04.37,0,2.07-1.95,2.29-2.69,1.28-4.17-3.51-20.42-4.48-26.07-4.9-28.72-9.49-57.49-14.79-86.13-1.45-3.45-7.03-3.03-10.99-5.97-2.8-2.08-5.36-5.66-6.64-8.9ZM448.78,729.35c.42-2.22.61-4.52-.87-6.34-42.67-31.18-92.42-59.1-135.89-89.95l-5.91,2.62c7.21,38.7,12.67,77.85,20.86,116.33,7.82-.4,10.46,6.41,16.4,8.41l105.41-31.08ZM156.96,643.78l-49.13,5.93c-2.21.69-2.07,4.03-1.16,5.88,21.85,16.28,45.45,29.29,71.68,37.22,3.58,1.08,15.69,6.07,14.8.24l-36.19-49.26ZM814.64,710.5h-16.49c-.36,0-1.71-.98-3-1.07-5.84-.4-5.38,2.53-9.16,4.9-14.17,8.87-32.22-7.22-22.77-21.76,6.03-9.28,20.83-8.85,26.84.04,1.36,2.01,1.28,5.8,4.29,6.7,3.2.95,25.27,2.94,27.29,1.72l26.52-49.43c.95-1.95.72-5-2-5.03l-108.3,46.12c.69,6.06-2.19,9.85-4.05,15.11,4.85,4.85,30.29,43.62,33.57,44.54,1.83.51,5.19-1,7.77-.95s7.17,2.34,9.03,1.17c3.57-2.78,32.48-40.27,30.45-42.04ZM868.43,696.36c1.04-5.85,3.6-9.51,6.97-14.13-2.94-4.37-8.27-26.09-11.51-27.45-1.28-.54-3.38-.37-4.84-.82l-24.42,46.55c11.44.59,22.56-2.7,33.8-4.15ZM698.53,693.73c-23.78-8.39-53.18-22.59-77.04-28.23-.6.14-5.62,7.85-9.53,7.19l6.94,57.68c5.03.2,11.78,5.04,14.08,9.39,1.41,2.65.83,6.61,3.72,7.24l120.04,16.97,2.47-5.54-32.48-43.47c-2.57-2.38-6.88-.07-11.27-.71-10.18-1.49-16.67-10.57-16.93-20.52ZM601.57,673.78c-.29-.28-5.88-2.22-7.45-3.03s-3.27-3.28-4.61-3.07l-102.14,57.76c2.35,7.79-3.56,13.42-5.98,20.1,11.66,25.78,23.73,51.36,35.98,76.86.58,1.21,1.31,4.84,1.52,5,.39.28,2.98-1.03,4.38-.93,3.35.24,7.04,3.32,10.14.99l64.67-67.29c.51-6.65-2.47-10.45.22-17.69,2.4-6.46,10.23-8.35,10.6-12.46-2.42-7.08-4.99-53.94-7.33-56.22ZM248.92,676.7c-.7-.44-7.03-.38-8.32-.14-4.7.89-11.41,14.04-16.03,16.99-.93,1.01.26,6.52.63,6.84,1.59,1.36,29.3-.76,33.86-.89-1.6-2.93-9.09-22.14-10.15-22.81Z"/>
    </g>
  </g>
</svg>