<?xml version="1.0" encoding="UTF-8"?>
<svg id="_圖層_2" data-name="圖層 2" xmlns="http://www.w3.org/2000/svg" viewBox="0 0 1963.22 987.23">
  <defs>
    <style>
      .cls-1 {
        fill: #f4f7f7;
      }

      .cls-2 {
        fill: #256a65;
      }

      .cls-3 {
        fill: #39746d;
      }

      .cls-4 {
        fill: #38736c;
      }

      .cls-5 {
        fill: #366f6b;
      }

      .cls-6 {
        fill: #276e69;
      }

      .cls-7 {
        fill: #f8fafa;
      }

      .cls-8 {
        fill: #fcfcfc;
      }

      .cls-9 {
        fill: #2d6e6a;
      }

      .cls-10 {
        fill: #357671;
      }

      .cls-11 {
        fill: #619a8f;
      }

      .cls-12 {
        fill: #f8f9f9;
      }

      .cls-13 {
        fill: #f3f6f6;
      }

      .cls-14 {
        fill: #35746e;
      }

      .cls-15 {
        fill: #236e6a;
      }

      .cls-16 {
        fill: #f5fafa;
      }

      .cls-17 {
        fill: #d3e4e3;
      }

      .cls-18 {
        fill: #f6fbfa;
      }

      .cls-19 {
        fill: #ecf1f1;
      }

      .cls-20 {
        fill: #fdfefd;
      }

      .cls-21 {
        fill: #fafbfb;
      }

      .cls-22 {
        fill: #226c67;
      }

      .cls-23 {
        fill: #f7f9f8;
      }

      .cls-24 {
        fill: #e8efef;
      }

      .cls-25 {
        fill: #347169;
      }

      .cls-26 {
        fill: #b6d7cc;
      }

      .cls-27 {
        fill: #fbfcfc;
      }

      .cls-28 {
        fill: #f9fbfb;
      }

      .cls-29 {
        fill: #f2f6f5;
      }

      .cls-30 {
        fill: #f2f5f5;
      }

      .cls-31 {
        fill: #32736d;
      }

      .cls-32 {
        fill: #216e69;
      }

      .cls-33 {
        fill: #f6f8f8;
      }

      .cls-34 {
        fill: #206d68;
      }

      .cls-35 {
        fill: #276d69;
      }

      .cls-36 {
        fill: #f4f6f6;
      }

      .cls-37 {
        fill: #f7f9f9;
      }

      .cls-38 {
        fill: #b7d7cc;
      }

      .cls-39 {
        fill: #f5faf9;
      }

      .cls-40 {
        fill: #b7d7ca;
      }

      .cls-41 {
        fill: #26706b;
      }

      .cls-42 {
        fill: #fefefe;
      }

      .cls-43 {
        fill: #387670;
      }

      .cls-44 {
        fill: #f6f9f9;
      }

      .cls-45 {
        fill: #e8f0f0;
      }

      .cls-46 {
        fill: #f5f7f7;
      }

      .cls-47 {
        fill: #276d67;
      }

      .cls-48 {
        fill: #216f6a;
      }

      .cls-49 {
        fill: #276d68;
      }

      .cls-50 {
        fill: #f9fafa;
      }

      .cls-51 {
        fill: #fdfefe;
      }

      .cls-52 {
        fill: #fcfdfd;
      }

      .cls-53 {
        fill: #276f6a;
      }

      .cls-54 {
        fill: #f4faf9;
      }

      .cls-55 {
        fill: #fdfdfd;
      }

      .cls-56 {
        fill: #4d8076;
      }

      .cls-57 {
        fill: #2e6e6a;
      }
    </style>
  </defs>
  <g id="_圖層_1-2" data-name="圖層 1">
    <path class="cls-34" d="M137.98,2.49C155.28-.42,210.04-.02,228.27,1.95c11.65,1.26,18.26,7.97,28.67,11.19,149.26,1.49,284.95-19.33,417.38,63.18,90.6,56.44,134.4,136.02,199.54,214.59,139.65,168.45,221.51-21.36,306.63-118.46,65.98-75.27,140.95-127.7,240.29-149.48,91.51-20.06,191.24-5.47,284.66-9.88,29.34-14.55,81.83-14.76,115.11-11.14,44.79,4.87,72.36,79.5,85.3,116.23,76.66,217.7,76.52,534.88-.6,752.45-12.93,36.48-40.45,109.81-84.7,114.62-19.75,2.15-66.63,2.13-86.39,0-12.6-1.36-18.58-9.93-28.72-11.14-67.14-7.99-151.63,4.4-221.5.04-122.96-7.67-224.28-68.83-303.45-159.4-85.33-97.63-166.73-286.93-306.64-118.46-65.09,78.38-109.17,158.24-199.54,214.59-132.28,82.49-268.31,61.66-417.38,63.18-29.18,14.82-82.19,14.74-115.06,11.19-40.72-4.4-66-67.28-78.65-100.73C-17.46,671.17-18.63,370.09,46.66,152.56,58.84,111.97,90.44,10.46,137.98,2.49ZM207.22,32.97h-63.12c-1.27,0-11.65,6.88-13.4,8.74-16.11,17.06-33.88,81.3-40.22,105.95-56.35,219.13-56.29,474.61.45,693.66,9.58,36.98,21.29,90.05,53.17,112.92h63.12c-35.43-40.38-44.33-98.18-52.79-149.84-33.67-205.54-33.8-445.26,4.76-650.04,8.01-42.53,18.36-88.56,48.03-121.39ZM1757.43,954.24h60.9c2.84,0,14.1-9.14,16.61-12.18,18.07-21.89,36.15-95.39,43.21-125.1,45.34-190.71,48.31-401.56,11.51-594-7.47-39.06-31.53-149.71-54.72-177.81-2.51-3.04-13.77-12.18-16.61-12.18h-60.9c42.44,57.07,50.61,135.9,59.49,205.15,24.41,190.36,23.6,412.78-13.63,601.42-8.01,40.58-20.08,81.83-45.86,114.69ZM1201.57,241.14c125.08-131.48,253.87-164.96,434.81-139.16,27.47,3.92,54.03,11.15,80.98,17.16,6.15-17.66,9.61-37.15,23.5-50.85,1.16-21.58-33.74-27.62-50.88-28.77-86.98-5.83-221.31-4.32-303.57,22.16-140.42,45.21-191.43,147.04-277.91,251.38-76.19,91.93-167.62,97.89-247.92,6.65-62.78-71.34-102.59-150.54-184.06-207.92-112.33-79.11-266.48-79.74-399.64-72.27-21.29,1.19-45.69,4.53-56.06,25.96,12.77,15.85,21.34,33.38,24.13,53.8,38.39-8.49,76.83-18.57,116.2-22.06,164.73-14.6,280.65,20.19,395.29,137.29,10.96,26.22,33.08,48.95,47,73.7,2.34,4.16,3.76,6.86-2.71,6.03-70.2-77.77-121.56-141.54-226.36-175.59-77.57-25.2-194.67-26.04-274.22-9.41-62.16,13-125.03,43.83-125.18,116.4,2.64,3.8,52.87,3.81,66.59,13.21,23.75,16.28,23.15,51.17,33.43,75.45,30.18,1.49,60.47,1.04,90.66,1.98,101.03,3.17,202.25,7.5,303.21,11.26,24.96.93,55.18-2.61,79.36,2.58,7.92,1.7,10.68,8.5,10.51,16.03-.19,7.87-5.37,27.87-7.31,37.18-10.99,52.74-24.43,113.43-38.56,165.18-11.05,40.47-28.22,40.98-66.35,46.6-98.9,14.57-199.39,20.68-298.54,33.65-36.18,8.2-47.61,57.51-2.33,61.86,101.38,9.74,217.48-9.45,321.19-2.29,6.75.47,15.94.33,19.35,7.26l1.57,7.08-6.67,11.17-35.38,3.4c26.8,31.95,11.39,74.6-25.36,88.67-104.35,2.32-208.41,2.87-312.27-2.42-19.1-.97-37.57,1.23-56.57-4.36l3.24-4.46,85.34-4.39c-5.18-13.24-13.72-23.26-13.35-38.65.3-12.84,8.93-23.09,13.35-34.41-65.38-9.11-65.62-83.3-12.03-110.76l.63-2.86c-7.89-21.58-14.47-43.68-20.7-65.79-22.77-80.68-41.78-171.63-69.13-249.78-2.77-7.92-6.95-21.52-14.09-25.77-4.87-2.9-53.22-7.68-55.21-5.72l-8.83,98.58c-.38,10.31.41,20.67-.03,30.97-4.66,109.16-5.88,258.5,18.39,364.77,17,74.44,131.53,93.7,195.35,96.98,184.74,9.5,281.14-31.14,401.93-166.08,6.36-.97,5.19,2.38,3.25,6.57-3.36,7.25-14.19,17.28-17.52,24.56-2.36,5.16-2.57,14.01-5.66,19.81-11.85,12.6-23.55,26.19-36.48,37.71-129.47,115.22-314.76,119.93-475.09,77.44-2.1,20.33-10.98,38.46-24.05,53.88,2.08,5.4,6.31,10.15,10.91,13.53,31.4,23.04,116.49,1.91,155.88,12.43,173.56,2.2,275.04-34.62,386.5-167.36,61.96-73.79,118.9-198.45,234.91-175.02,72.21,14.59,106.04,81.18,147.34,133.91,81.85,104.51,155.69,178.09,292.83,201.02,49.58,8.29,93.88,5.29,143.16,5.03,35.66-.19,78.59,3.28,113.13.18,15.56-1.39,29.21-9.69,36.54-23.35-12.37-16.28-20.15-34.08-24.63-54.09-26.96,6.05-53.52,13.28-81.01,17.19-177.54,25.3-316.05-7.96-437.03-141.38,6.15-12.8-8.03-23.6-13.78-33.84-2.34-4.16-3.76-6.86,2.71-6.03,63.35,70.03,131.58,128.57,225.87,151.72,84.29,20.69,267.11,22.56,336.66-35.42,33.44-27.87,34.07-51.4,39.83-91.94,19.1-134.41,19.97-282.44,6.64-417.45-4.25-43.07-6.57-105.79-37.65-137.3-67.45-68.37-274.6-62.8-360.97-37.65-111.56,32.48-166.27,100.97-239.18,182.7-7.08-7.79,7.9-16.89,10.28-20.71,3.89-6.22,6.69-14.67,10.93-21.2,7.13-10.99,19.9-22.5,20.87-35.61ZM224.78,130.2l-14.24-46.26c-5.97.05-24.68,64.08-21.02,68.61l35.26-22.35ZM1755.18,83.91c-4.88-.82-3.53.03-4.91,2.81-3.33,6.7-12.25,36.28-10.24,42.22l35.11,23.6-19.95-68.63ZM282.51,362.94l19.84,69.85,77.72,2.23,2.02-4.36c-7.46-21.6-5.68-48.11-16.53-67.73h-83.05ZM506.19,604.33v-31l15.2.3,2.53,28.48,74.3-10.94,9.32-56.7-4.76-3.1-13.51,2.17-3.13-3.13,4.66-12.01,19.3-2.84,11.07-62.65c-2.49-8.79-23.29,2.72-30.97-2.36l-2.16-13.07,36.77-5.75,8.9-57.85-4.61-2.07-109.63-2.23.02,17.74h-15.52s.02-19.95.02-19.95l-117.4-2.21,12.14,68.7c4.84,6.45,29.57-6.3,36.55,3.28l-7.99,11.9c-7.28.92-14.64-.07-21.93.27-3.75.18-3.36-.88-3.33,3.35.05,6.24,12.3,64.86,14.41,67.6l14.48,3.23,6.66,11.09c.83,6.08-13.5,2.29-17.77,5.58l13.32,70.82,73.07-6.63ZM653.75,372.11c-3.59,1.22-4.48,6.79-5.26,10.23-2.44,10.85-6.34,33.31-7.05,44.05-.17,2.57-.82,5.22.78,7.56l72.24,1.08,14.45-58.87-75.16-4.05ZM306.87,449.31l22.05,76.49c7.69,3.42,15.52-1.04,23.26-1.28s43.85,2.03,46.78-2.02l-15.68-73.19h-76.4ZM708.82,449.31h-68.65l-12.19,66.44,68.79-3.2c2.37-1.68,14.46-50.76,14.96-56.11.34-3.62.3-4.92-2.91-7.14ZM692.22,529.03l-66.58,3.2-10.93,58.8c15.47-4.14,48.64-1.11,60.96-8.78s16.23-39.69,16.56-53.22ZM404.22,540.21l-70.76,2.12,22.04,76.49c20.71,3.47,41.36-4.83,62.11-3.42l-13.39-75.19ZM579.26,735l-168.29,2.21c2.14,7.37,7.22,12.54,9.55,20.33,1.21,4.05,3.49,14.87,3.54,18.69.14,11.25-9.28,21.27-10.87,31.83l163.86,2.21c-1.59-6.93-6.73-11.14-9.47-18.19-5.23-13.42-5.56-23.18.22-36.47,3.41-7.86,10.53-12.45,11.47-20.62ZM634.5,773.25c0-12.27-9.95-22.22-22.22-22.22s-22.22,9.95-22.22,22.22,9.95,22.22,22.22,22.22,22.22-9.95,22.22-22.22ZM397.41,773.75c0-12.08-9.8-21.88-21.88-21.88s-21.88,9.8-21.88,21.88,9.8,21.88,21.88,21.88,21.88-9.8,21.88-21.88ZM224.78,857l-35.26-22.35c-1.92,9.37,15.17,68.57,21.02,68.61l14.24-46.26ZM1775.14,834.66l-35.11,23.6,10.79,45.04c5.09,1.06,3.53-.56,4.95-2.82,4.67-7.45,22.13-62.72,19.37-65.81Z"/>
    <path class="cls-40" d="M800.73,314.22c24.35,26.98,48.5,55.11,77.51,77.51-5.46,2.09.8,5.9,2.24,7.73,27.05,34.54,49.85,59.89,90.8,77.5,42.42,18.25,89.71,28.17,135.06,36.57-8.17,6.45-16.83,20.37-14.56,31.11,5.6,26.47,50.06,65.54,77.5,61.81,8.82-1.2,25.83-16.68,27.86-24.27,3.13,9.94,13.68,20.8,21.01,28.82,17.61,19.3,42.97,46.96,62.87,62.62-3.86-1.66-8.34.12-10,3.98s.12,8.34,3.98,10c3.86,1.66,8.34-.12,10-3.98,1.66-3.86-.12-8.34-3.98-10,11.98,8.06,30.49,20.54,44.57,21.5-13.39,5.56-24.55,26.33-21.65,40.46,5.33,25.91,68.52,57.14,94.69,46.97,11.32-11.05,25.09-29.1,17.76-45.36l77.38,25.63,11.21-1.27c66.22,19.69,194.36,22.12,252.46-19.93,10.81,6.13,23.72-9.29,33.22-13.29-5.76,40.53-6.4,64.06-39.83,91.94-69.55,57.98-252.37,56.11-336.66,35.42-94.29-23.14-162.52-81.69-225.87-151.72-68.35-75.55-116.57-167.87-237.54-150.07-70.51,10.38-130.03,98.33-174.37,147.85-120.8,134.93-217.19,175.58-401.93,166.08-63.82-3.28-178.35-22.54-195.35-96.98-24.27-106.26-23.05-255.61-18.39-364.77.44-10.3-.35-20.66.03-30.97l8.83-98.58c1.98-1.96,50.33,2.82,55.21,5.72,7.14,4.25,11.32,17.85,14.09,25.77,27.34,78.15,46.35,169.1,69.13,249.78,6.24,22.1,12.81,44.21,20.7,65.79l-.63,2.86c-53.59,27.46-53.35,101.65,12.03,110.76-4.43,11.32-13.05,21.57-13.35,34.41-.36,15.39,8.17,25.41,13.35,38.65l-85.34,4.39-3.24,4.46c18.99,5.58,37.47,3.38,56.57,4.36,103.86,5.29,207.92,4.74,312.27,2.42,36.75-14.07,52.16-56.72,25.36-88.67l35.38-3.4,6.67-11.17-1.57-7.08c-3.41-6.93-12.59-6.79-19.35-7.26-103.71-7.17-219.81,12.03-321.19,2.29-45.29-4.35-33.85-53.66,2.33-61.86,99.15-12.97,199.64-19.08,298.54-33.65,38.13-5.62,55.29-6.12,66.35-46.6,14.14-51.76,27.57-112.44,38.56-165.18,1.94-9.31,7.12-29.31,7.31-37.18.18-7.53-2.58-14.33-10.51-16.03-24.17-5.19-54.4-1.65-79.36-2.58-100.96-3.77-202.18-8.09-303.21-11.26-30.18-.95-60.48-.5-90.66-1.98-10.28-24.28-9.68-59.17-33.43-75.45-13.72-9.4-63.95-9.42-66.59-13.21.15-72.57,63.02-103.4,125.18-116.4,79.55-16.64,196.65-15.79,274.22,9.41,104.8,34.05,156.16,97.82,226.36,175.59ZM639.05,218.98c6.9-6.97-29.74-34.86-35.6-38.57-70.63-44.59-187.95-52.43-261.99-12.09-13.56,7.39-20.53,15.47,1.94,13.01,75-8.22,120.53-23.92,198.71-1.58,33.72,9.63,62.92,31.07,96.94,39.23ZM707.71,283.2c-2.51-5.76-11.13-6.25-16.52-6.71-28.7-2.47-67.32,9.6-89.6,27.96-4.9,4.03-12.24,9.27-11.25,16.42,3.42,3.35,39.39-18.94,45.71-21.82,22.36-10.19,46.88-16.96,71.66-15.84ZM1000.03,520.17c.71-3.68-.81-4.66-3.83-6.12-6.54-3.15-20.15-4.22-28.37-7.07-104.95-36.41-126.08-173.37-222.95-197.82-28.42-7.17-63.4-6.62-88.1,10.62-2.16,9.22,22.91,1.37,27.7,1.1,122.15-6.71,136.69,105.52,216.13,166.96,28.03,21.68,63.13,39.11,99.42,32.32ZM929.16,542.31c.71-3.68-.81-4.66-3.83-6.12-7.25-3.5-21.34-4.94-30.89-8.97-47.25-19.94-51.72-47.64-79.45-82.22-2.11-2.64-3.66-5.33-7.61-4.55,10.32,57.61,61.23,105.99,121.78,101.85ZM1047.71,531.3c0-5.14-4.17-9.31-9.31-9.31s-9.31,4.17-9.31,9.31,4.17,9.31,9.31,9.31,9.31-4.17,9.31-9.31ZM1073.1,545.15c0-3.66-2.97-6.62-6.62-6.62s-6.62,2.97-6.62,6.62,2.97,6.62,6.62,6.62,6.62-2.97,6.62-6.62ZM1192.44,631.68c0-4.31-3.49-7.8-7.8-7.8s-7.8,3.49-7.8,7.8,3.49,7.8,7.8,7.8,7.8-3.49,7.8-7.8ZM1223.71,650.84c7.38,1.25,7.27,10.65,14.36,15.54,2.64,1.82,4.14,4.16,6.71,0,3.44-5.54-5.57-23.74-10-28.83l-3.33-2.3c-6.81-.8-13.77,3.56-17.81,8.85-19.82,25.92,19.53,64.94,29.04,51.19l.02-9.18c-16.5-2.74-25.93-19.87-18.99-35.26ZM1281.61,728.04c0-4.49-3.64-8.13-8.13-8.13s-8.13,3.64-8.13,8.13,3.64,8.13,8.13,8.13,8.13-3.64,8.13-8.13ZM1458.11,764.87c0-4.43-3.59-8.02-8.02-8.02s-8.02,3.59-8.02,8.02,3.59,8.02,8.02,8.02,8.02-3.59,8.02-8.02ZM1741.92,774.87c-96.65,37.21-199.88,43.07-300.16,16.17l-3.22,5.94c68.09,33.02,144.24,35.63,217.45,19.28,22.64-5.06,51.47-14,71.12-26.33,2.2-1.38,18.54-11.53,14.82-15.06ZM1434,823.52c0-4.91-3.98-8.9-8.9-8.9s-8.9,3.98-8.9,8.9,3.98,8.9,8.9,8.9,8.9-3.98,8.9-8.9Z"/>
    <path class="cls-42" d="M1790.65,728.35c-9.5,4-22.41,19.42-33.22,13.29,25.97-18.8,25.11-35.6,24.45-65.42-.13-5.92-3.27-11.81-2.36-17.51.77-4.87,6.68-8.23,9.37-12.94,8.18-14.28,8.19-58.6,6.23-75.81s-18.08-29.47-31.77-36.88c-6.18-3.34-21.18-5.64-23.24-12.21-5.17-16.56,18.84-20.52,29.56-31.62,4.05-4.2,9-10.34,10.62-15.95,2.6-8.99,3.08-66.27.49-75.01-2.67-9.01-15.68-20.12-23.53-25.19-65.99-42.58-239.82-43.78-303.03,4.44-29.15,22.24-13.65,44.58-18.98,76.25-15.24,8.67-37.27,20.13-40.48,39.25-2.13,12.68-1.77,43.75-.62,57.14,2.43,28.26,31.7,39.8,53.33,51.21-1.25,8.27,1.74,20.46-.53,27.99-1.02,3.4-5.9,5.78-7.94,9.78-5.33,10.46-5.92,48.62-4.88,61.5,2.97,36.82,39.89,51.73,70.83,60.93l-11.21,1.27-77.38-25.63c-8.2-18.17-49.37-37.97-68.54-41.08-8.05-1.31-14.63-.47-22.26-1-14.07-.96-32.59-13.44-44.57-21.5-19.91-15.66-45.26-43.32-62.87-62.62-7.32-8.02-17.87-18.88-21.01-28.82,7.64-28.49-36.65-63.81-60.28-71.48-11.95-3.88-19.82-5.61-30.51,2.83-45.35-8.4-92.64-18.33-135.06-36.57-40.95-17.62-63.75-42.97-90.8-77.5-1.44-1.84-7.7-5.64-2.24-7.73,114.44,88.4,203.16,14.47,281.25-73.08,72.9-81.73,127.62-150.23,239.18-182.7,86.37-25.14,293.52-30.72,360.97,37.65,31.08,31.51,33.4,94.23,37.65,137.3,13.33,135,12.46,283.04-6.64,417.45ZM1234.44,569.98c0-4.43-3.59-8.02-8.02-8.02s-8.02,3.59-8.02,8.02,3.59,8.02,8.02,8.02,8.02-3.59,8.02-8.02ZM1271.79,567.15c-9.14,2.05-22.6,23.28-23.67,31.85-4,31.82,62.81,69.07,89.39,67.26,18.78-1.28,35.62-27.15,31.86-44.83-6.36-29.94-68.51-60.81-97.58-54.28ZM1404.96,667.2c0-5.56-4.51-10.06-10.06-10.06s-10.06,4.51-10.06,10.06,4.51,10.06,10.06,10.06,10.06-4.51,10.06-10.06Z"/>
    <path class="cls-42" d="M1199.35,743.85c120.97,133.42,259.49,166.68,437.03,141.38,27.48-3.92,54.05-11.14,81.01-17.19,4.48,20.01,12.26,37.81,24.63,54.09-7.33,13.66-20.98,21.95-36.54,23.35-34.54,3.09-77.47-.37-113.13-.18-49.29.26-93.58,3.27-143.16-5.03-137.14-22.93-210.98-96.51-292.83-201.02-41.3-52.74-75.13-119.33-147.34-133.91-116.02-23.43-172.95,101.23-234.91,175.02-111.46,132.74-212.94,169.56-386.5,167.36-39.39-10.52-124.48,10.61-155.88-12.43-4.6-3.37-8.83-8.13-10.91-13.53,13.08-15.42,21.95-33.55,24.05-53.88,160.33,42.49,345.62,37.78,475.09-77.44,12.94-11.51,24.63-25.1,36.48-37.71,70.89-75.39,144.83-217.83,269.7-175.58,66.43,22.48,126.07,114.72,173.22,166.72Z"/>
    <path class="cls-42" d="M756.44,234.5c-114.63-117.1-230.56-151.88-395.29-137.29-39.37,3.49-77.81,13.57-116.2,22.06-2.8-20.42-11.37-37.95-24.13-53.8,10.37-21.43,34.77-24.77,56.06-25.96,133.16-7.47,287.32-6.84,399.64,72.27,81.47,57.38,121.28,136.59,184.06,207.92,80.3,91.24,171.73,85.28,247.92-6.65,86.48-104.34,137.5-206.17,277.91-251.38,82.26-26.49,216.59-27.99,303.57-22.16,17.14,1.15,52.04,7.19,50.88,28.77-13.89,13.71-17.35,33.19-23.5,50.85-26.95-6.01-53.51-13.25-80.98-17.16-180.94-25.79-309.73,7.68-434.81,139.16-9.78,10.28-21.5,19.15-30.96,29.94-31.37,35.78-56.24,77.7-95.46,106.07-147.98,107.03-230.35-52.39-318.71-142.65Z"/>
    <path class="cls-26" d="M207.22,32.97c-29.67,32.83-40.02,78.86-48.03,121.39-38.56,204.78-38.43,444.5-4.76,650.04,8.46,51.67,17.37,109.46,52.79,149.84h-63.12c-31.89-22.87-43.59-75.94-53.17-112.92-56.74-219.05-56.79-474.53-.45-693.66,6.34-24.64,24.1-88.89,40.22-105.95,1.76-1.86,12.13-8.74,13.4-8.74h63.12Z"/>
    <path class="cls-38" d="M1757.43,954.24c25.78-32.86,37.86-74.12,45.86-114.69,37.23-188.65,38.04-411.07,13.63-601.42-8.88-69.25-17.05-148.08-59.49-205.15h60.9c2.84,0,14.1,9.14,16.61,12.18,23.19,28.1,47.25,138.75,54.72,177.81,36.8,192.44,33.83,403.3-11.51,594-7.06,29.71-25.14,103.2-43.21,125.1-2.51,3.04-13.77,12.18-16.61,12.18h-60.9Z"/>
    <path class="cls-42" d="M506.19,604.33l-73.07,6.63-13.32-70.82c4.27-3.29,18.59.5,17.77-5.58l-6.66-11.09-14.48-3.23c-2.11-2.74-14.36-61.37-14.41-67.6-.03-4.23-.41-3.17,3.33-3.35,7.29-.34,14.65.65,21.93-.27l7.99-11.9c-6.98-9.58-31.71,3.17-36.55-3.28l-12.14-68.7,117.4,2.21-.02,19.95h15.52s-.02-17.74-.02-17.74l109.63,2.23,4.61,2.07-8.9,57.85-36.77,5.75,2.16,13.07c7.68,5.08,28.48-6.43,30.97,2.36l-11.07,62.65-19.3,2.84-4.66,12.01,3.13,3.13,13.51-2.17,4.76,3.1-9.32,56.7-74.3,10.94-2.53-28.48-15.2-.3v31ZM541.63,447.09c37.92-6.38,18.54-37.42-12.21-39.83-87.48-6.85-115.54,119-38.3,142.38,24.97,7.56,65.41,2.26,72.63-27.23-12.75-.43-21.9,11.24-34.45,13.15-39.82,6.05-64.81-21.42-60.53-60.55,3.55-32.45,38.17-64.46,70.55-46.66l3.58,5.38-1.27,13.37ZM521.69,440.47c-42.1-.87-53.81,74.73-6.65,74.18-25.85-21.65-10.73-52.6,6.65-74.18Z"/>
    <path class="cls-40" d="M579.26,735c-.94,8.17-8.06,12.76-11.47,20.62-5.77,13.29-5.45,23.05-.22,36.47,2.75,7.04,7.88,11.26,9.47,18.19l-163.86-2.21c1.59-10.56,11-20.58,10.87-31.83-.05-3.82-2.33-14.64-3.54-18.69-2.32-7.79-7.41-12.96-9.55-20.33l168.29-2.21Z"/>
    <path class="cls-9" d="M1188.28,703.99c-6.47-.84-5.05,1.86-2.71,6.03,5.75,10.23,19.93,21.03,13.78,33.84-47.15-52-106.79-144.24-173.22-166.72-124.87-42.25-198.81,100.18-269.7,175.58,3.09-5.79,3.3-14.64,5.66-19.81,3.33-7.28,14.16-17.31,17.52-24.56,1.94-4.19,3.11-7.54-3.25-6.57,44.34-49.53,103.86-137.48,174.37-147.85,120.98-17.8,169.2,74.51,237.54,150.07Z"/>
    <path class="cls-57" d="M1201.57,241.14c-.97,13.11-13.74,24.62-20.87,35.61-4.24,6.53-7.04,14.98-10.93,21.2-2.38,3.82-17.36,12.91-10.28,20.71-78.1,87.55-166.81,161.48-281.25,73.08-29.01-22.4-53.16-50.53-77.51-77.51,6.47.84,5.05-1.87,2.71-6.03-13.92-24.74-36.04-47.48-47-73.7,88.37,90.27,170.73,249.69,318.71,142.65,39.22-28.36,64.09-70.29,95.46-106.07,9.46-10.79,21.17-19.66,30.96-29.94Z"/>
    <path class="cls-42" d="M282.51,362.94h83.05c10.85,19.62,9.07,46.13,16.53,67.73l-2.02,4.36-77.72-2.23-19.84-69.85Z"/>
    <path class="cls-42" d="M306.87,449.31h76.4l15.68,73.19c-2.93,4.05-38.97,1.77-46.78,2.02s-15.57,4.7-23.26,1.28l-22.05-76.49Z"/>
    <path class="cls-42" d="M404.22,540.21l13.39,75.19c-20.76-1.4-41.4,6.89-62.11,3.42l-22.04-76.49,70.76-2.12Z"/>
    <path class="cls-55" d="M653.75,372.11l75.16,4.05-14.45,58.87-72.24-1.08c-1.6-2.34-.95-4.99-.78-7.56.71-10.74,4.61-33.2,7.05-44.05.77-3.45,1.67-9.01,5.26-10.23Z"/>
    <path class="cls-20" d="M708.82,449.31c3.21,2.22,3.25,3.52,2.91,7.14-.5,5.35-12.6,54.43-14.96,56.11l-68.79,3.2,12.19-66.44h68.65Z"/>
    <path class="cls-51" d="M692.22,529.03c-.33,13.53-4.47,45.69-16.56,53.22s-45.48,4.64-60.96,8.78l10.93-58.8,66.58-3.2Z"/>
    <circle class="cls-52" cx="612.27" cy="773.25" r="22.22"/>
    <circle class="cls-52" cx="375.53" cy="773.75" r="21.88"/>
    <path class="cls-18" d="M1775.14,834.66c2.76,3.09-14.7,58.36-19.37,65.81-1.42,2.26.14,3.88-4.95,2.82l-10.79-45.04,35.11-23.6Z"/>
    <path class="cls-16" d="M1755.18,83.91l19.95,68.63-35.11-23.6c-2-5.94,6.92-35.53,10.24-42.22,1.38-2.78.03-3.63,4.91-2.81Z"/>
    <path class="cls-39" d="M224.78,130.2l-35.26,22.35c-3.66-4.53,15.04-68.56,21.02-68.61l14.24,46.26Z"/>
    <path class="cls-54" d="M224.78,857l-14.24,46.26c-5.85-.04-22.93-59.24-21.02-68.61l35.26,22.35Z"/>
    <path class="cls-48" d="M1757.43,741.64c-58.1,42.05-186.25,39.62-252.46,19.93-30.94-9.2-67.87-24.11-70.83-60.93-1.04-12.88-.46-51.04,4.88-61.5,2.04-4,6.92-6.38,7.94-9.78,2.27-7.53-.72-19.72.53-27.99-21.63-11.42-50.9-22.95-53.33-51.21-1.15-13.38-1.52-44.45.62-57.14,3.21-19.12,25.24-30.58,40.48-39.25,5.33-31.67-10.17-54.01,18.98-76.25,63.2-48.22,237.03-47.02,303.03-4.44,7.86,5.07,20.86,16.17,23.53,25.19,2.6,8.75,2.11,66.03-.49,75.01-1.62,5.61-6.57,11.75-10.62,15.95-10.72,11.11-34.73,15.06-29.56,31.62,2.06,6.58,17.06,8.87,23.24,12.21,13.69,7.41,29.89,20.31,31.77,36.88s1.95,61.54-6.23,75.81c-2.7,4.71-8.6,8.07-9.37,12.94-.91,5.7,2.23,11.59,2.36,17.51.65,29.82,1.52,46.63-24.45,65.42ZM1579.8,359.16c-33.84,2-104.85,10.89-124.55,41.55-2.85,4.43-4.43,7.44-2.02,12.73,7.24,23.58,66.77,37.89,88.97,41.82,48.75,8.65,103.8,7.55,151.95-3.9,29.12-6.92,106.4-31.66,52.92-65.88-41.32-26.44-119.25-29.16-167.27-26.32ZM1471.74,482.52l-1.12-30.97-18.79-11.09c-.8,16.65-2.15,40.79,19.91,42.06ZM1746.36,452.63v32.11c21.12-5.35,21.44-25.98,19.92-44.28-2.54-2.59-19.48,7.04-19.92,12.17ZM1485.04,458.17v35.43l18.98,6.6,5.05-3.62-1.68-32.58-22.35-5.83ZM1730.86,458.17l-22.15,7.75v34.33c8.33.97,16.07-2.15,22.15-7.75v-34.33ZM1600.2,512.43v-33.22l-75.29-9.97-1.22,35.54c2.36,3.51,33.71,7.77,40.25,8.49,6.53.72,34.38,5.28,36.27-.84ZM1693.21,469.24l-77.51,6.64v36.54c3.65,4.82,10.87,3.66,16.6,3.3,19.03-1.19,38.22-5,57.19-7.03l3.73-2.92v-36.54ZM1688.77,524.62c-60.18,9.47-121.76,11.09-180.52-6.62-27.61-8.32-56.53-19.99-71.12-46.43-7.47-2.18-31.43,21.02-24.75,31.51,1.58,7.13,13.53,16.35,19.69,20.23,52.97,33.33,183.74,32.44,241.66,11.72,1.57-.56,19.84-6.43,15.03-10.41ZM1429.67,573.33v-34.33l-17.71-9.96c-.83,18.18-2.68,37.18,17.71,44.28ZM1706.5,539v34.33c20.38-7.1,18.54-26.1,17.71-44.28l-17.71,9.95ZM1589.12,619.86c.84,4.03,4.35,4.12,7.67,4.49,40.4,4.53,151.49-4.45,177.09-40.09,14.21-19.77-12.81-37.3-30.62-41.84-6.45,9.42-1.4,17.2-9.23,28.55-25.62,37.11-103.46,44.74-144.91,48.89ZM1467.32,588.83v-34.33l-22.15-7.75v34.33l22.15,7.75ZM1690.98,546.75l-23.26,8.85,1.13,35.45,22.15-6.68-.02-37.62ZM1560.33,566.68l-75.3-8.86v37.65c17.21,3.15,36.9,7.82,54.27,8.83,6.64.39,16.51,1.85,21.03-3.3v-34.33ZM1651.13,557.83l-75.3,6.64v39.86l75.3-8.86v-37.65ZM1774.3,604.53l-14.2,12.43c-.34,5.15-2.51,31.36,2.86,31.61,20.29-9.75,14.82-22.46,16.49-40.66l-5.15-3.39ZM1462.89,608.75c-.92,17.51,2.27,31.58,18.84,39.82,6.12-.3,3.13-30.13-.04-35.36l-18.8-4.46ZM1522.69,664.1l-3.23-35.51-18.91-6.53c.15,21.39-8.41,43.22,22.14,42.05ZM1744.14,622.05l-22.15,6.64v34.33l3.3,3.25,18.85-9.89v-34.33ZM1613.48,679.63v-36.54c-7.34-6.35-20.15-2.49-29.88-3.34-15.1-1.32-30.36-4.88-45.42-6.63v37.65l75.3,8.86ZM1628.99,641.98v37.65c24.66.13,49.56-2.81,73.79-7.11l2.99-2.8-1.5-36.59-75.28,8.85ZM1710.92,688.51c-62.4,8.86-126.9,11.29-188.26-5.53-15.85-4.34-34.58-11.44-48.51-20.14-5.55-3.47-12.54-11.54-15.65-13.15-11.23-5.81-4.39,12.8,1.28,18.66,39.83,41.17,171.96,41.94,224.65,30.19l26.48-10.03ZM1764.05,679.63l-17.24,14.84c-.34,5.15-2.51,31.36,2.86,31.61,19.91-9.69,18.74-27.29,14.39-46.45ZM1451.83,684.07c-1.01,17.94-1.56,35.27,16.61,44.23,5.39-.25,3.15-26.49,2.9-31.65l-19.51-12.58ZM1509.4,743.85v-32.11l-22.18-8.98c-5.9,21.86-5.43,41.62,22.18,41.09ZM1730.86,701.77l-24.36,6.64v34.33l5.08,2.99,19.28-8.53v-35.43ZM1600.2,721.71l-75.3-8.86v37.65l75.3,8.86v-37.65ZM1615.7,721.71v37.65l75.39-7.66-.14-38.86-75.25,8.87Z"/>
    <path class="cls-22" d="M1000.03,520.17c-36.29,6.78-71.39-10.65-99.42-32.32-79.44-61.43-93.98-173.66-216.13-166.96-4.79.26-29.86,8.12-27.7-1.1,24.7-17.24,59.68-17.79,88.1-10.62,96.87,24.45,118,161.41,222.95,197.82,8.22,2.85,21.83,3.92,28.37,7.07,3.02,1.46,4.53,2.44,3.83,6.12Z"/>
    <path class="cls-42" d="M639.05,218.98c-34.02-8.16-63.22-29.6-96.94-39.23-78.18-22.34-123.71-6.64-198.71,1.58-22.47,2.46-15.5-5.62-1.94-13.01,74.04-40.34,191.36-32.5,261.99,12.09,5.86,3.7,42.5,31.6,35.6,38.57Z"/>
    <path class="cls-32" d="M1741.92,774.87c3.72,3.52-12.62,13.68-14.82,15.06-19.64,12.33-48.48,21.27-71.12,26.33-73.21,16.35-149.36,13.74-217.45-19.28l3.22-5.94c100.28,26.9,203.51,21.04,300.16-16.17Z"/>
    <path class="cls-53" d="M1416.38,737.21c7.33,16.26-6.44,34.31-17.76,45.36-26.16,10.17-89.36-21.06-94.69-46.97-2.91-14.13,8.25-34.9,21.65-40.46,7.63.52,14.21-.31,22.26,1,19.17,3.12,60.34,22.91,68.54,41.08ZM1327.8,708.44c-4.35,6.08,21.47,24.75,26.5,27.73,7,4.15,48.73,22.59,51.02,10.95-5.63-14.7-20.92-25.22-34.97-31.43-12.53-5.54-29.27-11.99-42.55-7.26ZM1330.76,736.47c-3.52-2.85-6.63-11.46-10.73-14.75-6.31-3.21-6.71,17.49.3,19.8l9.66-2.09c.09,3.1-.49,6.52.44,9.54,1.9,6.17,37.88,24.35,43.47,21.05,10.83-14.6-1.88-12.04-12.17-16.9-6.37-3.01-26.56-13.07-30.97-16.64ZM1398.66,761.58l-11.07,1.09-4.41,9.96c8.45,1.09,16.48-1,15.48-11.05Z"/>
    <path class="cls-6" d="M1197.14,582.19c-2.03,7.58-19.04,23.07-27.86,24.27-27.44,3.72-71.9-35.35-77.5-61.81-2.27-10.74,6.39-24.66,14.56-31.11,10.69-8.44,18.57-6.71,30.51-2.83,23.64,7.67,67.92,42.99,60.28,71.48ZM1183.85,575.54c8.71-20.34-55.18-64.33-64.21-55.35-.45,15.04,18.57,33.06,29.94,42.02,9.55,7.53,21.69,14.17,34.27,13.33ZM1110.73,533.48c-17.56,5.62,3.95,30.15,12.16,37.69,11.32,10.4,34.68,27.96,49.88,22.05l-2.24-7.68c-25.4-8.23-48.86-27.32-59.8-52.06Z"/>
    <path class="cls-47" d="M929.16,542.31c-60.55,4.14-111.46-44.24-121.78-101.85,3.95-.78,5.5,1.91,7.61,4.55,27.73,34.57,32.2,62.28,79.45,82.22,9.56,4.03,23.64,5.47,30.89,8.97,3.02,1.46,4.53,2.44,3.83,6.12Z"/>
    <path class="cls-2" d="M707.71,283.2c-24.78-1.12-49.3,5.65-71.66,15.84-6.32,2.88-42.28,25.17-45.71,21.82-.99-7.14,6.35-12.38,11.25-16.42,22.28-18.35,60.9-30.43,89.6-27.96,5.39.46,14,.96,16.52,6.71Z"/>
    <path class="cls-49" d="M1234.79,637.55l-.95,8.97-10.13,4.32c-6.93,15.39,2.49,32.52,18.99,35.26l-.02,9.18c-9.51,13.76-48.86-25.27-29.04-51.19,4.04-5.28,11-9.64,17.81-8.85l3.33,2.3Z"/>
    <path class="cls-11" d="M1234.79,637.55c4.43,5.08,13.44,23.28,10,28.83-2.58,4.16-4.08,1.82-6.71,0-7.09-4.89-6.98-14.29-14.36-15.54l10.13-4.32.95-8.97Z"/>
    <circle class="cls-25" cx="1038.4" cy="531.3" r="9.31"/>
    <circle class="cls-14" cx="1425.1" cy="823.52" r="8.9"/>
    <circle class="cls-4" cx="1273.48" cy="728.04" r="8.13"/>
    <circle class="cls-31" cx="1450.09" cy="764.87" r="8.02"/>
    <circle class="cls-43" cx="1184.63" cy="631.68" r="7.8"/>
    <circle class="cls-3" cx="1278.01" cy="680.62" r="7.61"/>
    <circle class="cls-56" cx="1066.47" cy="545.15" r="6.62"/>
    <path class="cls-41" d="M1271.79,567.15c29.07-6.53,91.22,24.34,97.58,54.28,3.76,17.68-13.08,43.55-31.86,44.83-26.58,1.81-93.39-35.45-89.39-67.26,1.08-8.57,14.53-29.79,23.67-31.85ZM1356.6,630.91c2.5-18.86-26.33-36.76-41.38-43.9-12.25-5.81-56.66-19.57-36.14,7.36,15.68,20.58,51.42,38.98,77.52,36.54ZM1264.68,595.52c-6.59,5.3-3.07,15.09,2.21,19.85l5.49-9.99-7.71-9.86ZM1279.85,630.15c2.06,2.05,18.63,11.36,20.3,11.23,5.25-4.3,11.32-7.1,4.06-12.35-7.35-5.32-16.64-10.16-24.05-15.73-6.57,5.57-6.18,11.01-.31,16.85ZM1307.87,646.39c22,9.51,20.15-15.03,5.88-10.86-2.82.82-7.05,9.21-5.88,10.86ZM1347.72,644.22l-11.01-1.23-2.44,2.16-2.04,7.91c6.89.87,15.35-.25,15.48-8.83Z"/>
    <circle class="cls-10" cx="1394.9" cy="667.2" r="10.06"/>
    <circle class="cls-5" cx="1226.42" cy="569.98" r="8.02"/>
    <path class="cls-32" d="M541.63,447.09l1.27-13.37-3.58-5.38c-32.38-17.8-67,14.22-70.55,46.66-4.28,39.12,20.71,66.59,60.53,60.55,12.55-1.91,21.69-13.57,34.45-13.15-7.22,29.5-47.66,34.79-72.63,27.23-77.24-23.38-49.18-149.22,38.3-142.38,30.75,2.41,50.13,33.45,12.21,39.83Z"/>
    <path class="cls-35" d="M521.69,440.47c-17.39,21.58-32.5,52.53-6.65,74.18-47.16.56-35.44-75.05,6.65-74.18Z"/>
    <path class="cls-42" d="M1579.8,359.16c48.02-2.83,125.95-.12,167.27,26.32,53.48,34.22-23.79,58.96-52.92,65.88-48.16,11.45-103.2,12.55-151.95,3.9-22.2-3.94-81.73-18.24-88.97-41.82-2.41-5.29-.82-8.3,2.02-12.73,19.69-30.66,90.71-39.55,124.55-41.55ZM1668.28,391.17l1.85-8.32c-6.17-10.08-67.17-9.86-79.63-8.57-19.89,2.05-54.18,12.52-56.72,36.11,1.33,20.85,41.87,30.77,58.69,32.25,13.45,1.19,67.35.72,76.42-7.68,4.02-3.72,1.99-9.06-2.28-11.14-6.2-3.01-38.85,5.38-49.7,5.67-12.29.32-49.97-3.97-56.71-14.35-11.49-17.68,22.28-24.59,34.48-25.59,12.92-1.06,31.14-.74,44.24,0,8.18.46,23,7.78,29.36,1.62Z"/>
    <path class="cls-42" d="M1688.77,524.62c4.81,3.98-13.46,9.85-15.03,10.41-57.92,20.72-188.69,21.6-241.66-11.72-6.16-3.88-18.12-13.1-19.69-20.23-6.68-10.48,17.27-33.69,24.75-31.51,14.59,26.44,43.51,38.11,71.12,46.43,58.75,17.71,120.33,16.08,180.52,6.62Z"/>
    <path class="cls-55" d="M1589.12,619.86c41.45-4.15,119.29-11.77,144.91-48.89,7.83-11.35,2.78-19.13,9.23-28.55,17.81,4.54,44.83,22.07,30.62,41.84-25.61,35.64-136.69,44.62-177.09,40.09-3.32-.37-6.82-.46-7.67-4.49Z"/>
    <path class="cls-55" d="M1693.21,469.24v36.54l-3.73,2.92c-18.97,2.02-38.15,5.84-57.19,7.03-5.72.36-12.95,1.52-16.6-3.3v-36.54l77.51-6.64Z"/>
    <polygon class="cls-55" points="1615.7 721.71 1690.95 712.84 1691.09 751.7 1615.7 759.35 1615.7 721.71"/>
    <path class="cls-55" d="M1600.2,512.43c-1.89,6.11-29.73,1.56-36.27.84-6.54-.72-37.89-4.98-40.25-8.49l1.22-35.54,75.29,9.97v33.22Z"/>
    <polygon class="cls-55" points="1651.13 557.83 1651.13 595.47 1575.84 604.33 1575.84 564.47 1651.13 557.83"/>
    <path class="cls-42" d="M1613.48,679.63l-75.3-8.86v-37.65c15.05,1.75,30.31,5.31,45.42,6.63,9.73.85,22.54-3.01,29.88,3.34v36.54Z"/>
    <path class="cls-51" d="M1628.99,641.98l75.28-8.85,1.5,36.59-2.99,2.8c-24.24,4.29-49.13,7.24-73.79,7.11v-37.65Z"/>
    <path class="cls-55" d="M1560.33,566.68v34.33c-4.52,5.15-14.39,3.69-21.03,3.3-17.37-1.01-37.06-5.69-54.27-8.83v-37.65l75.3,8.86Z"/>
    <path class="cls-50" d="M1710.92,688.51l-26.48,10.03c-52.69,11.75-184.82,10.98-224.65-30.19-5.67-5.86-12.51-24.47-1.28-18.66,3.1,1.61,10.09,9.68,15.65,13.15,13.93,8.71,32.65,15.8,48.51,20.14,61.37,16.81,125.86,14.39,188.26,5.53Z"/>
    <polygon class="cls-55" points="1600.2 721.71 1600.2 759.35 1524.9 750.5 1524.9 712.85 1600.2 721.71"/>
    <polygon class="cls-21" points="1730.86 701.77 1730.86 737.21 1711.58 745.74 1706.5 742.74 1706.5 708.42 1730.86 701.77"/>
    <polygon class="cls-23" points="1690.98 546.75 1691.01 584.37 1668.86 591.05 1667.73 555.6 1690.98 546.75"/>
    <polygon class="cls-7" points="1485.04 458.17 1507.39 464 1509.06 496.58 1504.01 500.21 1485.04 493.6 1485.04 458.17"/>
    <path class="cls-12" d="M1509.4,743.85c-27.61.53-28.09-19.23-22.18-41.09l22.18,8.98v32.11Z"/>
    <polygon class="cls-52" points="1744.14 622.05 1744.14 656.38 1725.29 666.27 1722 663.02 1722 628.69 1744.14 622.05"/>
    <path class="cls-27" d="M1730.86,458.17v34.33c-6.08,5.6-13.81,8.72-22.15,7.75v-34.33l22.15-7.75Z"/>
    <polygon class="cls-27" points="1467.32 588.83 1445.17 581.08 1445.17 546.75 1467.32 554.5 1467.32 588.83"/>
    <path class="cls-37" d="M1522.69,664.1c-30.55,1.17-21.99-20.66-22.14-42.05l18.91,6.53,3.23,35.51Z"/>
    <path class="cls-37" d="M1746.36,452.63c.45-5.13,17.38-14.77,19.92-12.17,1.52,18.3,1.2,38.93-19.92,44.28v-32.11Z"/>
    <path class="cls-36" d="M1764.05,679.63c4.35,19.16,5.53,36.76-14.39,46.45-5.37-.25-3.2-26.46-2.86-31.61l17.24-14.84Z"/>
    <path class="cls-30" d="M1774.3,604.53l5.15,3.39c-1.67,18.19,3.79,30.9-16.49,40.66-5.37-.25-3.2-26.46-2.86-31.61l14.2-12.43Z"/>
    <path class="cls-33" d="M1471.74,482.52c-22.06-1.27-20.72-25.41-19.91-42.06l18.79,11.09,1.12,30.97Z"/>
    <path class="cls-46" d="M1462.89,608.75l18.8,4.46c3.17,5.23,6.16,35.06.04,35.36-16.56-8.23-19.75-22.31-18.84-39.82Z"/>
    <path class="cls-1" d="M1451.83,684.07l19.51,12.58c.26,5.16,2.49,31.4-2.9,31.65-18.17-8.96-17.62-26.29-16.61-44.23Z"/>
    <path class="cls-28" d="M1706.5,539l17.71-9.95c.83,18.18,2.68,37.18-17.71,44.28v-34.33Z"/>
    <path class="cls-44" d="M1429.67,573.33c-20.38-7.1-18.54-26.1-17.71-44.28l17.71,9.96v34.33Z"/>
    <path class="cls-8" d="M1327.8,708.44c13.28-4.73,30.01,1.71,42.55,7.26,14.05,6.21,29.34,16.72,34.97,31.43-2.29,11.65-44.02-6.8-51.02-10.95-5.02-2.98-30.85-21.65-26.5-27.73Z"/>
    <path class="cls-13" d="M1330.76,736.47c4.41,3.56,24.61,13.63,30.97,16.64,10.29,4.86,23,2.3,12.17,16.9-5.58,3.3-41.57-14.87-43.47-21.05-.93-3.02-.35-6.44-.44-9.54l-9.66,2.09c-7.01-2.31-6.61-23.01-.3-19.8,4.1,3.29,7.21,11.91,10.73,14.75Z"/>
    <path class="cls-19" d="M1398.66,761.58c1,10.05-7.03,12.14-15.48,11.05l4.41-9.96,11.07-1.09Z"/>
    <path class="cls-52" d="M1183.85,575.54c-12.59.83-24.73-5.81-34.27-13.33-11.37-8.96-30.38-26.98-29.94-42.02,9.02-8.98,72.92,35.01,64.21,55.35Z"/>
    <path class="cls-12" d="M1110.73,533.48c10.94,24.74,34.4,43.84,59.8,52.06l2.24,7.68c-15.2,5.91-38.55-11.65-49.88-22.05-8.21-7.54-29.72-32.08-12.16-37.69Z"/>
    <path class="cls-55" d="M1356.6,630.91c-26.1,2.45-61.84-15.95-77.52-36.54-20.52-26.93,23.89-13.17,36.14-7.36,15.05,7.14,43.88,25.04,41.38,43.9Z"/>
    <path class="cls-29" d="M1279.85,630.15c-5.86-5.84-6.25-11.29.31-16.85,7.41,5.57,16.7,10.41,24.05,15.73,7.26,5.25,1.19,8.05-4.06,12.35-1.67.13-18.24-9.17-20.3-11.23Z"/>
    <path class="cls-24" d="M1307.87,646.39c-1.17-1.65,3.06-10.04,5.88-10.86,14.27-4.17,16.12,20.37-5.88,10.86Z"/>
    <path class="cls-45" d="M1264.68,595.52l7.71,9.86-5.49,9.99c-5.28-4.76-8.81-14.55-2.21-19.85Z"/>
    <path class="cls-17" d="M1347.72,644.22c-.13,8.58-8.59,9.7-15.48,8.83l2.04-7.91,2.44-2.16,11.01,1.23Z"/>
    <path class="cls-15" d="M1668.28,391.17c-6.36,6.16-21.18-1.15-29.36-1.62-13.09-.74-31.31-1.07-44.24,0-12.2,1-45.97,7.91-34.48,25.59,6.74,10.38,44.42,14.67,56.71,14.35,10.85-.28,43.5-8.68,49.7-5.67,4.27,2.08,6.3,7.42,2.28,11.14-9.06,8.4-62.97,8.86-76.42,7.68-16.82-1.48-57.37-11.4-58.69-32.25,2.54-23.58,36.83-34.05,56.72-36.11,12.46-1.29,73.46-1.51,79.63,8.57l-1.85,8.32Z"/>
  </g>
</svg>