<?xml version="1.0" encoding="UTF-8"?>
<svg id="_圖層_2" data-name="圖層 2" xmlns="http://www.w3.org/2000/svg" xmlns:xlink="http://www.w3.org/1999/xlink" viewBox="0 0 596.7 351.03">
  <defs>
    <style>
      .cls-1 {
        fill: url(#_未命名漸層_8);
      }
    </style>
    <linearGradient id="_未命名漸層_8" data-name="未命名漸層 8" x1="16.78" y1="400.6" x2="473.15" y2="137.11" gradientTransform="translate(15.94 -71.3)" gradientUnits="userSpaceOnUse">
      <stop offset="0" stop-color="#5c93c7"/>
      <stop offset="1" stop-color="#64ccaf"/>
    </linearGradient>
  </defs>
  <g id="_圖層_1-2" data-name="圖層 1">
    <path class="cls-1" d="M437.21,36.46c34.3,39.27,35.88,88.69,35.63,138.77-.16,31.63-4.26,68.89-2.08,99.89.86,12.17,4.03,15.19,15.16,8.08,15.65-10,36.68-31.54,46.66-47.26,5.39-8.49,8.85-18.43,14.2-26.76,16.48-2.54,33.28-4.07,49.94-5.53-.73,17.53-9.27,38.27-17.79,53.64-21.23,38.3-90.19,107.19-136,70.64-22.9-18.27-21.32-64.05-21.11-90.86.34-44.38,8.56-113.89-12.78-152.97-31.25-57.25-104.13-35.1-117.78,23.45-17.72,76,25.38,179.71-58.33,227.38-71.57,40.75-171.37-.92-209.93-68.68C-9.33,209.5-7.41,135.94,27.73,80.88,74.29,7.91,174.18-21.73,251.05,21.49l-23.68,43.27c-19.64-8.89-41.08-14.42-62.88-12.98C38.82,60.1,2.45,240.09,126.4,291.73c50.27,20.95,107.16,8.06,111.56-53.62,3.38-47.35-5.78-98.7,5.5-145.34,20.94-86.56,131.43-127.64,193.74-56.3Z"/>
  </g>
</svg>